<svg width="55" height="52" viewBox="0 0 55 52" fill="none" xmlns="http://www.w3.org/2000/svg">
<path d="M16.1916 0.199144C16.35 0.293619 16.4883 0.41825 16.5983 0.565918C16.7084 0.713586 16.7882 0.881399 16.8331 1.05977C16.878 1.23814 16.8872 1.42357 16.8602 1.60548C16.8331 1.78738 16.7703 1.96219 16.6753 2.11993L9.51469 14.0002H35.4853L28.3219 2.11993C28.1302 1.80135 28.0734 1.42001 28.1642 1.05979C28.2549 0.699578 28.4856 0.389992 28.8056 0.199144C29.1256 0.00829578 29.5087 -0.0481821 29.8705 0.0421347C30.2323 0.132451 30.5433 0.362165 30.735 0.68074L38.7647 14.0002H42.1875C42.9334 14.0002 43.6488 14.2952 44.1762 14.8203C44.7037 15.3454 45 16.0576 45 16.8002V19.6002C45 20.3428 44.7037 21.055 44.1762 21.5801C43.6488 22.1052 42.9334 22.4002 42.1875 22.4002V35.0001C42.1875 36.8566 41.4467 38.637 40.1281 39.9498C38.8095 41.2625 37.0211 42 35.1562 42H9.84375C7.97895 42 6.19052 41.2625 4.87191 39.9498C3.55329 38.637 2.8125 36.8566 2.8125 35.0001V22.4002C2.06658 22.4002 1.35121 22.1052 0.823762 21.5801C0.296316 21.055 0 20.3428 0 19.6002V16.8002C0 16.0576 0.296316 15.3454 0.823762 14.8203C1.35121 14.2952 2.06658 14.0002 2.8125 14.0002H6.23531L14.2594 0.68074C14.3543 0.522973 14.4795 0.385363 14.6278 0.275772C14.7761 0.166181 14.9447 0.0867558 15.1238 0.0420332C15.303 -0.00268937 15.4893 -0.0118328 15.672 0.0151246C15.8547 0.0420821 16.0331 0.104612 16.1916 0.199144ZM5.625 22.4002V35.0001C5.625 36.114 6.06947 37.1822 6.86064 37.9699C7.65181 38.7575 8.72487 39.2 9.84375 39.2H35.1562C36.2751 39.2 37.3482 38.7575 38.1394 37.9699C38.9305 37.1822 39.375 36.114 39.375 35.0001V22.4002H5.625ZM2.8125 16.8002V19.6002H42.1875V16.8002H2.8125ZM11.25 25.2001C11.623 25.2001 11.9806 25.3476 12.2444 25.6102C12.5081 25.8727 12.6563 26.2288 12.6563 26.6001V35.0001C12.6563 35.3714 12.5081 35.7275 12.2444 35.99C11.9806 36.2525 11.623 36.4 11.25 36.4C10.877 36.4 10.5194 36.2525 10.2556 35.99C9.99191 35.7275 9.84375 35.3714 9.84375 35.0001V26.6001C9.84375 26.2288 9.99191 25.8727 10.2556 25.6102C10.5194 25.3476 10.877 25.2001 11.25 25.2001ZM16.875 25.2001C17.248 25.2001 17.6056 25.3476 17.8694 25.6102C18.1331 25.8727 18.2812 26.2288 18.2812 26.6001V35.0001C18.2812 35.3714 18.1331 35.7275 17.8694 35.99C17.6056 36.2525 17.248 36.4 16.875 36.4C16.502 36.4 16.1444 36.2525 15.8806 35.99C15.6169 35.7275 15.4688 35.3714 15.4688 35.0001V26.6001C15.4688 26.2288 15.6169 25.8727 15.8806 25.6102C16.1444 25.3476 16.502 25.2001 16.875 25.2001ZM22.5 25.2001C22.873 25.2001 23.2306 25.3476 23.4944 25.6102C23.7581 25.8727 23.9063 26.2288 23.9063 26.6001V35.0001C23.9063 35.3714 23.7581 35.7275 23.4944 35.99C23.2306 36.2525 22.873 36.4 22.5 36.4C22.127 36.4 21.7694 36.2525 21.5056 35.99C21.2419 35.7275 21.0938 35.3714 21.0938 35.0001V26.6001C21.0938 26.2288 21.2419 25.8727 21.5056 25.6102C21.7694 25.3476 22.127 25.2001 22.5 25.2001ZM28.125 25.2001C28.498 25.2001 28.8556 25.3476 29.1194 25.6102C29.3831 25.8727 29.5313 26.2288 29.5313 26.6001V35.0001C29.5313 35.3714 29.3831 35.7275 29.1194 35.99C28.8556 36.2525 28.498 36.4 28.125 36.4C27.752 36.4 27.3944 36.2525 27.1306 35.99C26.8669 35.7275 26.7188 35.3714 26.7188 35.0001V26.6001C26.7188 26.2288 26.8669 25.8727 27.1306 25.6102C27.3944 25.3476 27.752 25.2001 28.125 25.2001ZM33.75 25.2001C34.123 25.2001 34.4806 25.3476 34.7444 25.6102C35.0081 25.8727 35.1562 26.2288 35.1562 26.6001V35.0001C35.1562 35.3714 35.0081 35.7275 34.7444 35.99C34.4806 36.2525 34.123 36.4 33.75 36.4C33.377 36.4 33.0194 36.2525 32.7556 35.99C32.4919 35.7275 32.3438 35.3714 32.3438 35.0001V26.6001C32.3438 26.2288 32.4919 25.8727 32.7556 25.6102C33.0194 25.3476 33.377 25.2001 33.75 25.2001Z" fill="#6E6E6E"/>
<circle cx="42.5" cy="34.5" r="12.5" fill="#E31B1B"/>
<path d="M50.3647 29.675C50.3647 30.3417 49.8564 31.1583 48.8397 32.125C47.8397 33.0917 46.7397 33.9417 45.5397 34.675C46.6231 35.2417 47.5064 35.8 48.1897 36.35C48.8897 36.8833 49.2397 37.3667 49.2397 37.8C49.2397 38.5833 48.7981 39.3833 47.9147 40.2C47.0481 41 45.9231 41.6667 44.5397 42.2C43.1731 42.7333 41.7814 43 40.3647 43C39.8647 43 39.2981 42.8 38.6647 42.4C38.0481 41.9833 37.5147 41.5 37.0647 40.95C36.6314 40.4 36.4147 39.9333 36.4147 39.55C36.4147 38.8167 36.8231 38 37.6397 37.1C38.4564 36.1833 39.6064 35.3083 41.0897 34.475C40.9064 34.3583 40.2897 33.9083 39.2397 33.125L37.7897 32.05C37.6231 31.9333 37.4897 31.725 37.3897 31.425C37.3064 31.125 37.2647 30.8 37.2647 30.45C37.2647 29.8333 37.3731 29.325 37.5897 28.925C37.7897 28.5083 38.3397 28.1 39.2397 27.7C40.1564 27.2833 41.2731 26.95 42.5897 26.7C43.9231 26.4333 45.2731 26.3 46.6397 26.3C47.1731 26.3 47.7314 26.4917 48.3147 26.875C48.8981 27.2417 49.3814 27.6917 49.7647 28.225C50.1647 28.7583 50.3647 29.2417 50.3647 29.675ZM43.3147 33.225C43.9814 32.7917 44.6314 32.2 45.2647 31.45C45.8981 30.7 46.3981 29.9083 46.7647 29.075C45.3981 29.325 44.2314 29.5917 43.2647 29.875C42.2981 30.1583 41.3564 30.5417 40.4397 31.025C41.6064 31.875 42.5647 32.6083 43.3147 33.225ZM45.4397 37.8C45.2564 37.5167 45.0064 37.2083 44.6897 36.875C44.3897 36.5417 44.0814 36.25 43.7647 36C42.0147 37.3833 40.7397 38.825 39.9397 40.325C42.5231 39.975 44.3564 39.1333 45.4397 37.8Z" fill="white"/>
</svg>
