<svg width="562" height="411" viewBox="0 0 562 411" fill="none" xmlns="http://www.w3.org/2000/svg">
<path d="M16.1667 39.872C16.1667 42.656 17.3507 44.048 19.7187 44.048C22.3107 44.048 24.0547 43.152 24.9507 41.36C25.2707 40.72 25.4307 39.904 25.4307 38.912C25.4307 37.888 25.1907 36.944 24.7107 36.08C23.9107 34.704 22.5347 33.184 20.5827 31.52C17.3507 28.768 15.7347 25.92 15.7347 22.976C15.7347 20 16.6627 17.712 18.5187 16.112C20.3747 14.512 22.5027 13.712 24.9027 13.712C27.3027 13.712 29.2067 14.32 30.6147 15.536C32.0227 16.752 32.7267 18.576 32.7267 21.008C32.7267 22.608 32.1827 24 31.0947 25.184C30.0387 26.368 28.6307 27.104 26.8707 27.392C27.6707 28.064 28.4707 28.752 29.2707 29.456C30.0387 30.16 30.7427 30.928 31.3827 31.76C32.7907 33.648 33.4947 35.904 33.4947 38.528C33.4947 40.352 33.0627 42 32.1987 43.472C31.3667 44.944 30.2627 46.192 28.8867 47.216C27.5427 48.208 26.0227 48.976 24.3267 49.52C22.6307 50.064 21.0467 50.336 19.5747 50.336C16.4387 50.336 14.0067 49.616 12.2787 48.176C10.2627 46.544 9.25469 44.192 9.25469 41.12C9.25469 39.104 9.91069 37.152 11.2227 35.264C12.5347 33.376 13.9267 32.432 15.3987 32.432C16.5507 32.432 17.1267 32.784 17.1267 33.488C17.1267 34.512 16.9667 35.536 16.6467 36.56C16.3267 37.552 16.1667 38.656 16.1667 39.872ZM25.4787 26.24C27.3027 24.416 28.2147 22.512 28.2147 20.528C28.2147 19.92 27.8947 19.408 27.2547 18.992C26.5507 18.608 25.8147 18.416 25.0467 18.416C23.3187 18.416 22.0707 18.976 21.3027 20.096C21.6867 21.472 22.2467 22.64 22.9827 23.6C23.7507 24.56 24.5827 25.44 25.4787 26.24ZM52.8537 33.872C52.8537 32.72 52.1657 32.144 50.7897 32.144C49.4457 32.144 48.1177 33.2 46.8057 35.312C45.4937 37.392 44.6777 39.52 44.3577 41.696C44.4217 42.432 44.4857 43.168 44.5497 43.904C44.6137 44.64 44.6457 45.36 44.6457 46.064C44.6457 47.76 44.0857 48.912 42.9657 49.52C42.4537 49.808 41.9577 50.08 41.4777 50.336C41.0297 50.592 40.5017 50.72 39.8937 50.72C39.2857 50.72 38.7417 50.32 38.2617 49.52C37.8137 48.688 37.5897 47.408 37.5897 45.68C37.5897 40.848 37.9417 36.656 38.6457 33.104C39.7337 27.6 41.8937 21.712 45.1257 15.44C45.5737 14.576 46.2297 14.16 47.0937 14.192C47.9577 14.192 48.6617 14.784 49.2057 15.968C49.7497 17.152 50.0057 18.144 49.9737 18.944C49.9737 19.744 49.8457 20.528 49.5897 21.296C49.3657 22.032 49.0617 22.768 48.6777 23.504C48.3257 24.208 47.9097 24.944 47.4297 25.712C46.9817 26.448 46.5337 27.248 46.0857 28.112L45.3657 31.568C46.6137 29.488 48.2937 28.096 50.4057 27.392C51.1737 27.136 52.0217 27.008 52.9497 27.008C55.1257 27.008 56.7737 27.504 57.8937 28.496C59.0137 29.456 59.5737 30.832 59.5737 32.624C59.5737 34.384 59.3337 36.176 58.8537 38C58.4057 39.824 58.0697 41.136 57.8457 41.936C57.6537 42.704 57.5577 43.344 57.5577 43.856C57.5577 44.368 57.7337 44.624 58.0857 44.624C58.5657 44.624 59.1577 44.32 59.8617 43.712C60.5657 43.104 61.2697 42.448 61.9737 41.744C62.6777 41.008 63.3177 40.336 63.8937 39.728C64.5017 39.12 64.9177 38.816 65.1417 38.816C65.5897 38.816 65.8137 39.36 65.8137 40.448C65.8137 42.688 64.7097 44.848 62.5017 46.928C58.7897 49.104 56.4217 50.192 55.3977 50.192C55.3017 50.192 55.2377 50.176 55.2057 50.144C52.6457 50.144 51.3657 48.096 51.3657 44C51.3657 42.24 51.5257 40.624 51.8457 39.152C52.1977 37.68 52.4537 36.608 52.6137 35.936C52.7737 35.264 52.8537 34.576 52.8537 33.872ZM82.7929 45.92C80.2649 48.896 77.2249 50.384 73.6729 50.384C70.1529 50.384 67.5129 49.488 65.7529 47.696C63.9929 45.872 63.1289 43.616 63.1609 40.928C63.1289 37.12 64.3289 33.84 66.7609 31.088C69.1929 28.336 72.3769 26.96 76.3129 26.96C78.1049 26.96 79.5449 27.184 80.6329 27.632C82.5209 28.4 83.4649 29.12 83.4649 29.792C83.4649 30.304 82.1369 30.576 79.4809 30.608C76.8569 30.608 74.6489 31.52 72.8569 33.344C71.0969 35.136 70.2169 37.408 70.2169 40.16C70.2169 41.6 70.6329 42.816 71.4649 43.808C72.3289 44.768 73.5289 45.248 75.0649 45.248C76.6329 45.248 77.9289 44.928 78.9529 44.288C76.6809 42.752 75.5449 40.528 75.5449 37.616C75.5129 36.08 76.0569 34.688 77.1769 33.44C78.3289 32.16 79.7849 31.52 81.5449 31.52C83.3369 31.488 84.6169 31.968 85.3849 32.96C86.1529 33.952 86.5369 35.232 86.5369 36.8C86.5369 38.336 86.1689 39.968 85.4329 41.696H85.7209C87.1289 41.664 88.3449 41.168 89.3689 40.208C89.7529 39.824 90.0729 39.488 90.3289 39.2C90.6169 38.912 90.9049 38.768 91.1929 38.768C91.6409 38.768 91.8649 39.296 91.8649 40.352C91.8649 42.304 91.2889 43.776 90.1369 44.768C88.9849 45.728 87.7049 46.208 86.2969 46.208C84.9209 46.208 83.7529 46.112 82.7929 45.92ZM82.3609 40.352C82.9049 39.2 83.1769 38.08 83.1769 36.992C83.1769 35.904 82.8249 35.36 82.1209 35.36C81.8329 35.36 81.5929 35.568 81.4009 35.984C81.2089 36.4 81.1129 36.8 81.1129 37.184C81.1129 38.464 81.5289 39.52 82.3609 40.352ZM98.5354 29.888C100.199 28 102.327 27.056 104.919 27.056C108.631 27.056 110.983 28.56 111.975 31.568C112.263 32.464 112.407 33.456 112.407 34.544C112.407 36.976 111.607 39.376 110.007 41.744C108.439 44.112 106.535 45.712 104.295 46.544H104.871C107.207 46.544 109.575 45.68 111.975 43.952C113.511 42.864 114.711 41.744 115.575 40.592C116.471 39.408 117.143 38.816 117.591 38.816C118.039 38.816 118.263 39.328 118.263 40.352C118.263 42.144 117.495 43.952 115.959 45.776C113.655 48.4 110.711 49.936 107.127 50.384C104.535 50.672 102.695 50.72 101.607 50.528C100.519 50.336 99.6874 50.096 99.1114 49.808C97.8634 49.168 97.2394 48.208 97.2394 46.928C97.2394 46.224 97.3834 45.584 97.6714 45.008C100.199 45.008 102.119 44.048 103.431 42.128C104.743 40.208 105.399 37.808 105.399 34.928C105.399 34.224 105.143 33.6 104.631 33.056C104.119 32.48 103.431 32.192 102.567 32.192C101.735 32.192 100.823 32.56 99.8314 33.296C98.8394 34.032 98.0394 34.96 97.4314 36.08C96.8554 37.168 96.3274 38.256 95.8474 39.344C95.3674 40.4 94.9834 41.744 94.6954 43.376C94.1834 46.32 93.5914 50.032 92.9194 54.512C92.2794 59.024 91.8794 61.44 91.7194 61.76C91.5594 62.112 91.3194 62.432 90.9994 62.72C90.6794 63.008 90.3434 63.152 89.9914 63.152C89.3514 63.152 88.8234 62.96 88.4074 62.576C87.2554 61.584 86.5834 60.816 86.3914 60.272C86.1994 59.76 86.1034 59.088 86.1034 58.256C86.1034 55.12 86.6314 50.72 87.6874 45.056C88.7434 39.392 90.5674 33.504 93.1594 27.392C93.5434 26.496 94.2154 26.048 95.1754 26.048C96.1674 26.048 97.1114 26.912 98.0074 28.64C98.2634 29.088 98.4394 29.504 98.5354 29.888ZM135.985 25.568C135.985 24.992 136.193 24.704 136.609 24.704C137.249 24.704 137.905 24.848 138.577 25.136C139.249 25.392 139.969 25.6 140.737 25.76C143.297 20.288 146.241 16.72 149.569 15.056C150.721 14.48 151.873 14.192 153.025 14.192C155.169 14.224 156.609 14.736 157.345 15.728C158.113 16.72 158.497 18 158.497 19.568C158.465 22.544 157.185 24.896 154.657 26.624C152.129 28.32 149.041 29.264 145.393 29.456C144.465 31.92 143.745 34.544 143.233 37.328C144.481 36.848 146.081 36.608 148.033 36.608C148.289 38.624 148.737 40.064 149.377 40.928C150.017 41.792 150.721 42.224 151.489 42.224C152.289 42.224 152.945 42.032 153.457 41.648C154.001 41.264 154.465 40.832 154.849 40.352C155.265 39.872 155.601 39.44 155.857 39.056C156.145 38.672 156.417 38.48 156.673 38.48C157.217 38.48 157.489 38.96 157.489 39.92C157.489 41.84 157.009 43.44 156.049 44.72C155.089 45.968 153.617 46.592 151.633 46.592C148.529 46.592 146.321 45.776 145.009 44.144C145.713 51.184 146.065 55.376 146.065 56.72C146.065 59.12 145.313 60.832 143.809 61.856C142.561 62.72 140.961 63.152 139.009 63.152C137.089 63.152 135.745 62.704 134.977 61.808C134.241 60.944 133.873 59.904 133.873 58.688C133.873 50.976 134.977 43.216 137.185 35.408C137.889 32.912 138.689 30.576 139.585 28.4C137.185 27.344 135.985 26.4 135.985 25.568ZM140.785 59.456C141.169 59.456 141.521 59.152 141.841 58.544C142.161 57.968 142.321 57.344 142.321 56.672C142.321 54.464 142.017 51.072 141.409 46.496C140.609 49.792 140.065 53.072 139.777 56.336C139.713 57.04 139.681 57.472 139.681 57.632C139.681 58.848 140.049 59.456 140.785 59.456ZM152.641 18.944C152.001 18.944 151.121 19.552 150.001 20.768C148.913 21.984 147.793 23.84 146.641 26.336C148.977 25.312 150.513 24.528 151.249 23.984C152.753 22.928 153.505 21.664 153.505 20.192C153.505 19.36 153.217 18.944 152.641 18.944ZM174.48 45.92C171.952 48.896 168.912 50.384 165.36 50.384C161.84 50.384 159.2 49.488 157.44 47.696C155.68 45.872 154.816 43.616 154.848 40.928C154.816 37.12 156.016 33.84 158.448 31.088C160.88 28.336 164.064 26.96 168 26.96C169.792 26.96 171.232 27.184 172.32 27.632C174.208 28.4 175.152 29.12 175.152 29.792C175.152 30.304 173.824 30.576 171.168 30.608C168.544 30.608 166.336 31.52 164.544 33.344C162.784 35.136 161.904 37.408 161.904 40.16C161.904 41.6 162.32 42.816 163.152 43.808C164.016 44.768 165.216 45.248 166.752 45.248C168.32 45.248 169.616 44.928 170.64 44.288C168.368 42.752 167.232 40.528 167.232 37.616C167.2 36.08 167.744 34.688 168.864 33.44C170.016 32.16 171.472 31.52 173.232 31.52C175.024 31.488 176.304 31.968 177.072 32.96C177.84 33.952 178.224 35.232 178.224 36.8C178.224 38.336 177.856 39.968 177.12 41.696H177.408C178.816 41.664 180.032 41.168 181.056 40.208C181.44 39.824 181.76 39.488 182.016 39.2C182.304 38.912 182.592 38.768 182.88 38.768C183.328 38.768 183.552 39.296 183.552 40.352C183.552 42.304 182.976 43.776 181.824 44.768C180.672 45.728 179.392 46.208 177.984 46.208C176.608 46.208 175.44 46.112 174.48 45.92ZM174.048 40.352C174.592 39.2 174.864 38.08 174.864 36.992C174.864 35.904 174.512 35.36 173.808 35.36C173.52 35.36 173.28 35.568 173.088 35.984C172.896 36.4 172.8 36.8 172.8 37.184C172.8 38.464 173.216 39.52 174.048 40.352ZM188.159 41.936L188.447 47.792C188.447 48.56 188.047 49.248 187.247 49.856C186.447 50.464 185.359 50.768 183.983 50.768C183.183 50.768 182.623 50.352 182.303 49.52C182.015 48.688 181.871 47.472 181.871 45.872C181.871 42.512 182.031 39.888 182.351 38C182.703 36.08 183.375 34.144 184.367 32.192C182.895 30.784 182.159 29.568 182.159 28.544C182.159 26.4 183.311 25.328 185.615 25.328C186.799 25.328 187.839 25.952 188.735 27.2C189.375 28.064 189.839 29.072 190.127 30.224C190.575 30.384 191.135 30.464 191.807 30.464C192.735 30.464 193.807 30.16 195.023 29.552L196.271 28.928C196.655 28.736 196.991 28.64 197.279 28.64C198.207 28.64 199.135 30 200.063 32.72C199.775 33.968 199.455 35.168 199.103 36.32C198.783 37.472 198.399 38.864 197.951 40.496C197.503 42.128 197.263 43.232 197.231 43.808C197.231 44.352 197.407 44.624 197.759 44.624C198.239 44.624 198.831 44.32 199.535 43.712C200.239 43.104 200.943 42.448 201.647 41.744C202.351 41.008 202.991 40.336 203.567 39.728C204.175 39.12 204.591 38.816 204.815 38.816C205.263 38.816 205.487 39.36 205.487 40.448C205.487 42.656 204.511 44.832 202.559 46.976C200.639 49.12 198.431 50.176 195.935 50.144C194.463 50.144 193.359 49.552 192.623 48.368C191.887 47.184 191.503 45.744 191.471 44.048C191.471 40.688 192.223 37.504 193.727 34.496C193.023 34.784 192.223 34.928 191.327 34.928C190.463 34.928 189.839 34.896 189.455 34.832C189.167 36.048 188.879 37.28 188.591 38.528C188.303 39.744 188.159 40.88 188.159 41.936ZM223.219 25.568C223.219 24.992 223.427 24.704 223.843 24.704C224.483 24.704 225.139 24.848 225.811 25.136C226.483 25.392 227.203 25.6 227.971 25.76C230.531 20.288 233.475 16.72 236.803 15.056C237.955 14.48 239.107 14.192 240.259 14.192C242.403 14.224 243.843 14.736 244.579 15.728C245.347 16.72 245.731 18 245.731 19.568C245.699 22.544 244.419 24.896 241.891 26.624C239.363 28.32 236.275 29.264 232.627 29.456C231.699 31.92 230.979 34.544 230.467 37.328C231.715 36.848 233.315 36.608 235.267 36.608C235.523 38.624 235.971 40.064 236.611 40.928C237.251 41.792 237.955 42.224 238.723 42.224C239.523 42.224 240.179 42.032 240.691 41.648C241.235 41.264 241.699 40.832 242.083 40.352C242.499 39.872 242.835 39.44 243.091 39.056C243.379 38.672 243.651 38.48 243.907 38.48C244.451 38.48 244.723 38.96 244.723 39.92C244.723 41.84 244.243 43.44 243.283 44.72C242.323 45.968 240.851 46.592 238.867 46.592C235.763 46.592 233.555 45.776 232.243 44.144C232.947 51.184 233.299 55.376 233.299 56.72C233.299 59.12 232.547 60.832 231.043 61.856C229.795 62.72 228.195 63.152 226.243 63.152C224.323 63.152 222.979 62.704 222.211 61.808C221.475 60.944 221.107 59.904 221.107 58.688C221.107 50.976 222.211 43.216 224.419 35.408C225.123 32.912 225.923 30.576 226.819 28.4C224.419 27.344 223.219 26.4 223.219 25.568ZM228.019 59.456C228.403 59.456 228.755 59.152 229.075 58.544C229.395 57.968 229.555 57.344 229.555 56.672C229.555 54.464 229.251 51.072 228.643 46.496C227.843 49.792 227.299 53.072 227.011 56.336C226.947 57.04 226.915 57.472 226.915 57.632C226.915 58.848 227.283 59.456 228.019 59.456ZM239.875 18.944C239.235 18.944 238.355 19.552 237.235 20.768C236.147 21.984 235.027 23.84 233.875 26.336C236.211 25.312 237.747 24.528 238.483 23.984C239.987 22.928 240.739 21.664 240.739 20.192C240.739 19.36 240.451 18.944 239.875 18.944ZM261.715 45.92C259.187 48.896 256.147 50.384 252.595 50.384C249.075 50.384 246.435 49.488 244.675 47.696C242.915 45.872 242.051 43.616 242.083 40.928C242.051 37.12 243.251 33.84 245.683 31.088C248.115 28.336 251.299 26.96 255.235 26.96C257.027 26.96 258.467 27.184 259.555 27.632C261.443 28.4 262.387 29.12 262.387 29.792C262.387 30.304 261.059 30.576 258.403 30.608C255.779 30.608 253.571 31.52 251.779 33.344C250.019 35.136 249.139 37.408 249.139 40.16C249.139 41.6 249.555 42.816 250.387 43.808C251.251 44.768 252.451 45.248 253.987 45.248C255.555 45.248 256.851 44.928 257.875 44.288C255.603 42.752 254.467 40.528 254.467 37.616C254.435 36.08 254.979 34.688 256.099 33.44C257.251 32.16 258.707 31.52 260.467 31.52C262.259 31.488 263.539 31.968 264.307 32.96C265.075 33.952 265.459 35.232 265.459 36.8C265.459 38.336 265.091 39.968 264.355 41.696H264.643C266.051 41.664 267.267 41.168 268.291 40.208C268.675 39.824 268.995 39.488 269.251 39.2C269.539 38.912 269.827 38.768 270.115 38.768C270.563 38.768 270.787 39.296 270.787 40.352C270.787 42.304 270.211 43.776 269.059 44.768C267.907 45.728 266.627 46.208 265.219 46.208C263.843 46.208 262.675 46.112 261.715 45.92ZM261.283 40.352C261.827 39.2 262.099 38.08 262.099 36.992C262.099 35.904 261.747 35.36 261.043 35.36C260.755 35.36 260.515 35.568 260.323 35.984C260.131 36.4 260.035 36.8 260.035 37.184C260.035 38.464 260.451 39.52 261.283 40.352ZM287.777 45.92C285.249 48.896 282.209 50.384 278.657 50.384C275.137 50.384 272.497 49.488 270.737 47.696C268.977 45.872 268.113 43.616 268.145 40.928C268.113 37.12 269.313 33.84 271.745 31.088C274.177 28.336 277.361 26.96 281.297 26.96C283.089 26.96 284.529 27.184 285.617 27.632C287.505 28.4 288.449 29.12 288.449 29.792C288.449 30.304 287.121 30.576 284.465 30.608C281.841 30.608 279.633 31.52 277.841 33.344C276.081 35.136 275.201 37.408 275.201 40.16C275.201 41.6 275.617 42.816 276.449 43.808C277.313 44.768 278.513 45.248 280.049 45.248C281.617 45.248 282.913 44.928 283.937 44.288C281.665 42.752 280.529 40.528 280.529 37.616C280.497 36.08 281.041 34.688 282.161 33.44C283.313 32.16 284.769 31.52 286.529 31.52C288.321 31.488 289.601 31.968 290.369 32.96C291.137 33.952 291.521 35.232 291.521 36.8C291.521 38.336 291.153 39.968 290.417 41.696H290.705C292.113 41.664 293.329 41.168 294.353 40.208C294.737 39.824 295.057 39.488 295.313 39.2C295.601 38.912 295.889 38.768 296.177 38.768C296.625 38.768 296.849 39.296 296.849 40.352C296.849 42.304 296.273 43.776 295.121 44.768C293.969 45.728 292.689 46.208 291.281 46.208C289.905 46.208 288.737 46.112 287.777 45.92ZM287.345 40.352C287.889 39.2 288.161 38.08 288.161 36.992C288.161 35.904 287.809 35.36 287.105 35.36C286.817 35.36 286.577 35.568 286.385 35.984C286.193 36.4 286.097 36.8 286.097 37.184C286.097 38.464 286.513 39.52 287.345 40.352ZM323.92 38.672C324.496 38.672 324.784 39.408 324.784 40.88C324.784 41.68 324.448 42.656 323.776 43.808C323.104 44.928 322.224 45.968 321.136 46.928C320.08 47.856 318.896 48.624 317.584 49.232C316.272 49.84 314.992 50.144 313.744 50.144C311.984 50.144 310.832 48.704 310.288 45.824C308.368 48.864 305.52 50.384 301.744 50.384C299.44 50.384 297.6 49.68 296.224 48.272C294.848 46.864 294.176 45.152 294.208 43.136C294.208 37.696 296.016 33.408 299.632 30.272C302.128 28.128 304.72 27.056 307.408 27.056C308.624 27.056 309.584 27.152 310.288 27.344L311.392 27.632C312.704 21.456 314.224 17.328 315.952 15.248C316.528 14.544 317.104 14.192 317.68 14.192C318.608 14.192 319.472 14.832 320.272 16.112C320.976 17.168 321.328 18.08 321.328 18.848C321.328 19.616 321.216 20.368 320.992 21.104C320.768 21.84 320.48 22.528 320.128 23.168C319.808 23.776 319.44 24.384 319.024 24.992C318.608 25.568 318.192 26.16 317.776 26.768C316.848 30.224 316.16 34.096 315.712 38.384C315.584 39.6 315.52 40.576 315.52 41.312C315.52 43.52 315.888 44.624 316.624 44.624C317.456 44.624 319.472 42.96 322.672 39.632C323.248 38.992 323.664 38.672 323.92 38.672ZM301.264 41.552C301.264 44.016 302.176 45.248 304 45.248C305.088 45.248 306.176 44.832 307.264 44C308.384 43.168 309.248 41.776 309.856 39.824C309.92 36.944 310.256 33.776 310.864 30.32C308.304 30.832 306.064 32.08 304.144 34.064C302.224 36.048 301.264 38.544 301.264 41.552Z" fill="#5E4949"/>
<path d="M275.875 206.672C276.419 206.672 276.691 207.408 276.691 208.88C276.691 209.68 276.355 210.656 275.683 211.808C275.011 212.928 274.131 213.968 273.043 214.928C271.987 215.856 270.803 216.624 269.491 217.232C268.179 217.84 266.787 218.144 265.315 218.144C263.875 218.144 262.739 217.68 261.907 216.752C261.107 215.792 260.707 214.736 260.707 213.584C260.707 212.4 260.899 211.072 261.283 209.6C261.667 208.128 262.083 206.592 262.531 204.992C263.747 200.736 264.371 197.744 264.403 196.016C264.403 195.28 264.307 194.72 264.115 194.336C263.923 193.92 263.555 193.712 263.011 193.712C262.051 193.712 261.027 194.288 259.939 195.44C258.851 196.592 257.827 198.064 256.867 199.856C254.659 203.952 253.491 207.952 253.363 211.856C253.427 212.304 253.491 212.752 253.555 213.2C253.619 213.648 253.651 214.128 253.651 214.64C253.651 215.664 253.139 216.608 252.115 217.472C251.123 218.304 250.003 218.72 248.755 218.72C248.019 218.72 247.475 218.368 247.123 217.664C246.771 216.928 246.595 216.032 246.595 214.976C246.595 213.92 246.835 212.48 247.315 210.656C247.795 208.832 248.323 206.896 248.899 204.848C250.435 199.44 251.219 195.408 251.251 192.752C251.251 191.408 251.075 190.352 250.723 189.584C250.403 188.816 249.763 188.432 248.803 188.432C247.075 188.432 245.363 189.664 243.667 192.128C241.971 194.592 240.451 198.416 239.107 203.6C238.755 204.944 238.483 206.112 238.291 207.104L238.243 208.016C238.851 210.96 239.155 212.88 239.155 213.776C239.155 215.632 238.499 216.88 237.187 217.52C236.579 217.808 235.987 218.08 235.411 218.336C234.867 218.592 234.275 218.72 233.635 218.72C232.035 218.72 231.235 217.2 231.235 214.16C231.235 211.088 232.083 205.104 233.779 196.208C234.387 193.008 234.691 191.216 234.691 190.832C234.691 188.24 234.035 186.944 232.723 186.944C232.275 186.944 231.859 187.072 231.475 187.328C231.123 187.584 230.755 187.856 230.371 188.144C230.019 188.432 229.651 188.704 229.267 188.96C228.883 189.216 228.435 189.344 227.923 189.344C227.443 189.344 227.203 188.912 227.203 188.048C227.203 186.288 228.019 184.848 229.651 183.728C231.219 182.576 233.123 182 235.363 182C238.243 182 239.939 183.344 240.451 186.032C240.579 186.832 240.675 187.68 240.739 188.576C243.107 184.128 246.099 181.904 249.715 181.904C253.651 181.904 255.907 183.792 256.483 187.568C256.675 188.656 256.755 189.824 256.723 191.072V191.456C258.803 188.576 261.267 187.136 264.115 187.136C268.147 187.136 270.163 189.568 270.163 194.432C270.163 196.544 269.827 199.024 269.155 201.872C268.515 204.688 268.035 206.72 267.715 207.968C267.427 209.184 267.283 210.128 267.283 210.8C267.283 212.016 267.699 212.624 268.531 212.624C269.395 212.624 271.427 210.96 274.627 207.632C275.203 206.992 275.619 206.672 275.875 206.672ZM303.771 206.672C304.347 206.672 304.635 207.408 304.635 208.88C304.635 209.68 304.299 210.656 303.627 211.808C302.955 212.928 302.075 213.968 300.987 214.928C299.931 215.856 298.747 216.624 297.435 217.232C296.123 217.84 294.843 218.144 293.595 218.144C291.899 218.144 290.763 216.656 290.187 213.68C289.355 215.056 288.267 216.192 286.923 217.088C285.579 217.952 283.771 218.384 281.499 218.384C279.259 218.384 277.451 217.68 276.075 216.272C274.699 214.864 274.027 213.152 274.059 211.136C274.059 205.696 275.867 201.408 279.483 198.272C281.019 196.96 282.443 196.096 283.755 195.68C285.099 195.264 286.507 195.056 287.979 195.056C289.451 195.056 290.651 195.312 291.579 195.824C292.027 194.896 292.539 194.432 293.115 194.432C294.235 194.432 295.291 194.928 296.283 195.92C297.307 196.88 297.819 197.792 297.819 198.656C297.371 199.712 296.715 200.976 295.851 202.448C295.595 203.92 295.467 205.984 295.467 208.64C295.467 211.296 295.803 212.624 296.475 212.624C297.307 212.624 299.323 210.96 302.523 207.632C303.099 206.992 303.515 206.672 303.771 206.672ZM281.115 209.552C281.115 212.016 282.027 213.248 283.851 213.248C285.803 213.216 287.419 212.176 288.699 210.128C289.147 209.424 289.515 208.56 289.803 207.536C289.803 203.952 290.123 200.88 290.763 198.32C288.171 198.832 285.915 200.08 283.995 202.064C282.075 204.048 281.115 206.544 281.115 209.552ZM316.253 207.488C317.117 210.912 318.573 212.624 320.621 212.624C321.613 212.624 322.509 212.32 323.309 211.712C324.109 211.104 324.829 210.448 325.469 209.744C326.109 209.008 326.669 208.336 327.149 207.728C327.629 207.12 328.077 206.816 328.493 206.816C328.909 206.816 329.117 207.36 329.117 208.448C329.117 210.72 328.061 212.912 325.949 215.024C323.837 217.136 321.469 218.176 318.845 218.144C316.253 218.144 313.933 215.856 311.885 211.28C311.309 210 310.765 208.704 310.253 207.392L309.917 213.968C309.917 214.576 309.885 215.184 309.821 215.792C309.757 216.368 309.485 216.848 309.005 217.232C307.757 218.224 306.493 218.72 305.213 218.72C303.709 218.72 302.957 217.168 302.957 214.064C302.957 209.584 303.485 204.896 304.541 200C305.597 195.104 306.621 191.424 307.613 188.96C308.637 186.464 309.421 184.8 309.965 183.968C310.541 183.136 310.989 182.624 311.309 182.432C311.629 182.24 311.981 182.144 312.365 182.144C312.781 182.144 313.213 182.352 313.661 182.768C314.109 183.152 314.589 183.76 315.101 184.592C315.613 185.392 315.869 186.192 315.869 186.992C315.901 187.76 315.773 188.528 315.485 189.296C315.229 190.032 314.877 190.768 314.429 191.504C313.981 192.208 313.485 192.944 312.941 193.712C312.397 194.448 311.853 195.248 311.309 196.112L310.829 200.144C311.949 197.808 313.597 196.24 315.773 195.44C316.541 195.152 317.437 195.008 318.461 195.008C320.509 195.008 322.077 195.504 323.165 196.496C324.253 197.456 324.797 198.88 324.797 200.768C324.797 202.656 323.853 204.256 321.965 205.568C320.077 206.88 318.173 207.52 316.253 207.488ZM318.077 201.872C318.077 200.72 317.421 200.144 316.109 200.144C314.797 200.144 313.373 201.408 311.837 203.936C311.389 204.672 311.005 205.424 310.685 206.192C314.013 206 316.285 205.104 317.501 203.504C317.885 202.992 318.077 202.448 318.077 201.872ZM337.89 212.768C340.386 212.768 342.802 211.776 345.138 209.792C346.002 209.056 346.706 208.384 347.25 207.776C347.794 207.136 348.21 206.816 348.498 206.816C348.946 206.816 349.17 207.264 349.17 208.16C349.17 209.056 348.93 210.064 348.45 211.184C347.97 212.272 347.17 213.344 346.05 214.4C343.298 216.992 339.522 218.288 334.722 218.288C330.914 218.288 328.322 216.912 326.946 214.16C326.466 213.2 326.226 211.824 326.226 210.032C326.226 208.24 326.578 206.384 327.282 204.464C327.986 202.512 328.914 200.832 330.066 199.424C331.25 198.016 332.61 196.928 334.146 196.16C335.682 195.36 337.314 194.96 339.042 194.96C340.802 194.96 342.146 195.392 343.074 196.256C344.034 197.12 344.514 198.24 344.514 199.616C344.514 200.992 344.162 202.128 343.458 203.024C342.786 203.888 341.906 204.624 340.818 205.232C339.73 205.808 338.514 206.336 337.17 206.816C335.858 207.264 334.562 207.776 333.282 208.352V209.552C333.314 210.704 333.794 211.52 334.722 212C335.65 212.48 336.706 212.736 337.89 212.768ZM337.074 199.232C335.41 199.232 334.258 201.168 333.618 205.04C334.29 204.592 334.914 204.192 335.49 203.84C336.098 203.488 336.626 203.152 337.074 202.832C338.034 202.128 338.53 201.328 338.562 200.432C338.562 199.632 338.066 199.232 337.074 199.232ZM375.059 197.888C376.723 196 378.851 195.056 381.443 195.056C385.155 195.056 387.507 196.56 388.499 199.568C388.787 200.464 388.931 201.456 388.931 202.544C388.931 204.976 388.131 207.376 386.531 209.744C384.963 212.112 383.059 213.712 380.819 214.544H381.395C383.731 214.544 386.099 213.68 388.499 211.952C390.035 210.864 391.235 209.744 392.099 208.592C392.995 207.408 393.667 206.816 394.115 206.816C394.563 206.816 394.787 207.328 394.787 208.352C394.787 210.144 394.019 211.952 392.483 213.776C390.179 216.4 387.235 217.936 383.651 218.384C381.059 218.672 379.219 218.72 378.131 218.528C377.043 218.336 376.211 218.096 375.635 217.808C374.387 217.168 373.763 216.208 373.763 214.928C373.763 214.224 373.907 213.584 374.195 213.008C376.723 213.008 378.643 212.048 379.955 210.128C381.267 208.208 381.923 205.808 381.923 202.928C381.923 202.224 381.667 201.6 381.155 201.056C380.643 200.48 379.955 200.192 379.091 200.192C378.259 200.192 377.347 200.56 376.355 201.296C375.363 202.032 374.563 202.96 373.955 204.08C373.379 205.168 372.851 206.256 372.371 207.344C371.891 208.4 371.507 209.744 371.219 211.376C370.707 214.32 370.115 218.032 369.443 222.512C368.803 227.024 368.403 229.44 368.243 229.76C368.083 230.112 367.843 230.432 367.523 230.72C367.203 231.008 366.867 231.152 366.515 231.152C365.875 231.152 365.347 230.96 364.931 230.576C363.779 229.584 363.107 228.816 362.915 228.272C362.723 227.76 362.627 227.088 362.627 226.256C362.627 223.12 363.155 218.72 364.211 213.056C365.267 207.392 367.091 201.504 369.683 195.392C370.067 194.496 370.739 194.048 371.699 194.048C372.691 194.048 373.635 194.912 374.531 196.64C374.787 197.088 374.963 197.504 375.059 197.888ZM421.85 206.672C422.426 206.672 422.714 207.408 422.714 208.88C422.714 209.68 422.378 210.656 421.706 211.808C421.034 212.928 420.154 213.968 419.066 214.928C418.01 215.856 416.826 216.624 415.514 217.232C414.202 217.84 412.922 218.144 411.674 218.144C409.978 218.144 408.842 216.656 408.266 213.68C407.434 215.056 406.346 216.192 405.002 217.088C403.658 217.952 401.85 218.384 399.578 218.384C397.338 218.384 395.53 217.68 394.154 216.272C392.778 214.864 392.106 213.152 392.138 211.136C392.138 205.696 393.946 201.408 397.562 198.272C399.098 196.96 400.522 196.096 401.834 195.68C403.178 195.264 404.586 195.056 406.058 195.056C407.53 195.056 408.73 195.312 409.658 195.824C410.106 194.896 410.618 194.432 411.194 194.432C412.314 194.432 413.37 194.928 414.362 195.92C415.386 196.88 415.898 197.792 415.898 198.656C415.45 199.712 414.794 200.976 413.93 202.448C413.674 203.92 413.546 205.984 413.546 208.64C413.546 211.296 413.882 212.624 414.554 212.624C415.386 212.624 417.402 210.96 420.602 207.632C421.178 206.992 421.594 206.672 421.85 206.672ZM399.194 209.552C399.194 212.016 400.106 213.248 401.93 213.248C403.882 213.216 405.498 212.176 406.778 210.128C407.226 209.424 407.594 208.56 407.882 207.536C407.882 203.952 408.202 200.88 408.842 198.32C406.25 198.832 403.994 200.08 402.074 202.064C400.154 204.048 399.194 206.544 399.194 209.552ZM433.227 214.496C431.627 216.704 429.483 217.808 426.795 217.808C424.619 217.808 422.875 217.36 421.563 216.464C420.283 215.536 419.643 214.08 419.643 212.096C419.643 211.264 419.755 210.496 419.979 209.792C420.235 209.088 420.635 208.224 421.179 207.2L422.571 195.824C423.563 195.056 424.907 194.672 426.603 194.672C428.043 194.672 428.859 195.632 429.051 197.552C429.115 198.128 429.147 198.816 429.147 199.616C429.147 200.384 429.019 201.2 428.763 202.064C427.483 206.48 426.859 209.44 426.891 210.944C426.891 212.096 427.563 212.672 428.907 212.672C430.251 212.672 431.243 212.24 431.883 211.376C432.523 210.512 433.067 209.44 433.515 208.16C434.347 204.608 435.115 201.68 435.819 199.376C436.555 197.072 437.019 195.696 437.211 195.248C437.531 194.48 438.139 194.08 439.035 194.048C439.931 194.08 440.779 194.72 441.579 195.968C442.379 197.184 442.779 198.128 442.779 198.8C442.715 201.04 441.323 206.688 438.603 215.744C440.683 214.112 442.747 212.112 444.795 209.744C445.499 208.912 446.091 208.224 446.571 207.68C447.051 207.104 447.435 206.816 447.723 206.816C448.171 206.816 448.395 207.328 448.395 208.352C448.395 210.368 447.259 212.72 444.987 215.408C442.747 218.096 439.995 220.192 436.731 221.696C436.347 222.976 435.931 224.192 435.483 225.344C435.035 226.496 434.459 227.504 433.755 228.368C432.219 230.224 429.883 231.152 426.747 231.152C424.635 231.152 422.827 230.544 421.323 229.328C419.851 228.112 419.115 226.592 419.115 224.768C419.115 223.744 419.451 222.928 420.123 222.32C420.827 221.712 421.771 221.2 422.955 220.784C424.171 220.4 425.579 220.048 427.179 219.728C428.779 219.44 430.491 219.072 432.315 218.624C432.763 216.704 433.067 215.328 433.227 214.496ZM426.699 227.456C428.203 227.456 429.563 226.144 430.779 223.52C429.627 223.744 428.603 223.904 427.707 224C426.811 224.128 426.043 224.24 425.403 224.336C424.123 224.528 423.499 224.864 423.531 225.344C423.531 225.952 423.883 226.464 424.587 226.88C425.323 227.296 426.027 227.488 426.699 227.456ZM472.307 203.408C472.307 202.352 471.699 201.824 470.483 201.824C469.651 201.824 468.723 202.64 467.699 204.272C466.675 205.872 465.939 207.6 465.491 209.456V209.552C465.491 210.64 465.651 211.76 465.971 212.912C466.323 214.064 466.499 214.864 466.499 215.312C466.499 216.4 465.139 217.472 462.419 218.528C462.003 218.688 461.635 218.768 461.315 218.768C460.515 218.768 459.955 218.352 459.635 217.52C459.347 216.688 459.203 215.568 459.203 214.16C459.203 212.72 459.235 211.376 459.299 210.128C459.395 208.848 459.475 207.68 459.539 206.624C459.635 205.536 459.715 204.592 459.779 203.792C459.875 202.96 459.923 202.288 459.923 201.776C459.923 200.688 459.427 200.144 458.435 200.144C457.443 200.144 456.291 201.312 454.979 203.648C453.667 205.952 453.011 207.792 453.011 209.168C453.011 210.512 453.171 211.76 453.491 212.912C453.843 214.064 454.019 214.864 454.019 215.312C454.019 216.4 452.659 217.472 449.939 218.528C449.523 218.688 449.155 218.768 448.835 218.768C448.035 218.768 447.475 218.352 447.155 217.52C446.867 216.688 446.723 215.408 446.723 213.68C446.723 209.136 446.899 205.856 447.251 203.84C447.731 200.864 448.819 198.048 450.515 195.392C451.091 194.496 451.715 194.048 452.387 194.048C453.443 194.048 454.419 194.912 455.315 196.64C455.571 197.088 455.763 197.504 455.891 197.888C457.427 195.968 459.235 195.008 461.315 195.008C462.691 195.008 463.923 195.472 465.011 196.4C466.099 197.296 466.643 198.432 466.643 199.808V200.336C468.595 197.904 470.979 196.688 473.795 196.688C475.523 196.688 476.835 197.136 477.731 198.032C478.627 198.928 479.075 200.032 479.075 201.344C479.075 202.656 478.979 203.84 478.787 204.896C478.595 205.952 478.371 206.944 478.115 207.872C477.891 208.8 477.683 209.632 477.491 210.368C477.299 211.072 477.203 211.632 477.203 212.048C477.203 212.432 477.331 212.624 477.587 212.624C478.067 212.624 478.659 212.32 479.363 211.712C480.067 211.104 480.771 210.448 481.475 209.744C482.179 209.008 482.819 208.336 483.395 207.728C484.003 207.12 484.419 206.816 484.643 206.816C485.091 206.816 485.315 207.36 485.315 208.448C485.315 210.688 484.179 212.864 481.907 214.976C479.667 217.088 477.267 218.144 474.707 218.144C472.403 218.144 471.251 216.048 471.251 211.856C471.251 210.8 471.427 209.344 471.779 207.488C472.131 205.632 472.307 204.272 472.307 203.408ZM494.077 212.768C496.573 212.768 498.989 211.776 501.325 209.792C502.189 209.056 502.893 208.384 503.437 207.776C503.981 207.136 504.397 206.816 504.685 206.816C505.133 206.816 505.357 207.264 505.357 208.16C505.357 209.056 505.117 210.064 504.637 211.184C504.157 212.272 503.357 213.344 502.237 214.4C499.485 216.992 495.709 218.288 490.909 218.288C487.101 218.288 484.509 216.912 483.133 214.16C482.653 213.2 482.413 211.824 482.413 210.032C482.413 208.24 482.765 206.384 483.469 204.464C484.173 202.512 485.101 200.832 486.253 199.424C487.437 198.016 488.797 196.928 490.333 196.16C491.869 195.36 493.501 194.96 495.229 194.96C496.989 194.96 498.333 195.392 499.261 196.256C500.221 197.12 500.701 198.24 500.701 199.616C500.701 200.992 500.349 202.128 499.645 203.024C498.973 203.888 498.093 204.624 497.005 205.232C495.917 205.808 494.701 206.336 493.357 206.816C492.045 207.264 490.749 207.776 489.469 208.352V209.552C489.501 210.704 489.981 211.52 490.909 212C491.837 212.48 492.893 212.736 494.077 212.768ZM493.261 199.232C491.597 199.232 490.445 201.168 489.805 205.04C490.477 204.592 491.101 204.192 491.677 203.84C492.285 203.488 492.813 203.152 493.261 202.832C494.221 202.128 494.717 201.328 494.749 200.432C494.749 199.632 494.253 199.232 493.261 199.232ZM509.34 194.048C510.492 194.048 511.58 195.152 512.604 197.36C514.108 195.792 515.964 195.008 518.172 195.008C520.412 195.008 522.092 195.504 523.212 196.496C524.332 197.456 524.892 198.832 524.892 200.624C524.892 202.384 524.652 204.176 524.172 206C523.724 207.824 523.388 209.136 523.164 209.936C522.972 210.704 522.876 211.344 522.876 211.856C522.876 212.368 523.052 212.624 523.404 212.624C523.884 212.624 524.476 212.32 525.18 211.712C525.884 211.104 526.588 210.448 527.292 209.744C527.996 209.008 528.636 208.336 529.212 207.728C529.82 207.12 530.236 206.816 530.46 206.816C530.908 206.816 531.132 207.36 531.132 208.448C531.132 210.688 530.028 212.848 527.82 214.928C524.108 217.104 521.74 218.192 520.716 218.192C520.62 218.192 520.556 218.176 520.524 218.144C517.964 218.144 516.684 216.096 516.684 212C516.684 210.24 516.844 208.624 517.164 207.152C517.516 205.68 517.772 204.608 517.932 203.936C518.092 203.264 518.172 202.576 518.172 201.872C518.172 200.72 517.5 200.144 516.156 200.144C514.844 200.144 513.58 201.136 512.364 203.12C511.18 205.072 510.38 207.104 509.964 209.216V209.552C509.964 210.64 510.124 211.76 510.444 212.912C510.796 214.064 510.972 214.864 510.972 215.312C510.972 216.4 509.612 217.472 506.892 218.528C506.476 218.688 506.108 218.768 505.788 218.768C504.988 218.768 504.428 218.352 504.108 217.52C503.82 216.688 503.676 215.392 503.676 213.632C503.676 209.088 503.852 205.808 504.204 203.792C504.684 200.784 505.772 197.984 507.468 195.392C508.044 194.496 508.668 194.048 509.34 194.048ZM530.849 215.408C530.497 214.544 530.241 213.552 530.081 212.432C529.921 211.28 529.841 209.68 529.841 207.632C529.841 205.584 530.225 202.816 530.993 199.328H528.833C528.449 199.328 528.257 199.168 528.257 198.848C528.257 198.08 528.321 197.456 528.449 196.976C528.609 196.464 528.961 195.888 529.505 195.248H530.657C531.105 195.248 531.585 195.232 532.097 195.2C533.633 190.272 535.201 187.808 536.801 187.808C538.081 187.84 538.977 188.656 539.489 190.256C539.617 190.704 539.761 191.184 539.921 191.696L537.953 195.152C540.193 195.216 541.601 195.248 542.177 195.248C542.785 195.248 543.105 195.312 543.137 195.44C543.201 195.536 543.233 195.696 543.233 195.92C543.233 196.496 543.089 197.216 542.801 198.08C542.545 198.944 542.241 199.36 541.889 199.328L537.089 199.088C536.417 202.992 536.081 206.224 536.081 208.784C536.081 211.344 536.449 212.624 537.185 212.624C537.793 212.624 538.897 212.128 540.497 211.136C542.097 210.112 543.249 209.136 543.953 208.208C544.657 207.28 545.233 206.816 545.681 206.816C546.129 206.816 546.353 207.36 546.353 208.448C546.353 209.536 545.969 210.656 545.201 211.808C544.433 212.928 543.457 213.968 542.273 214.928C541.121 215.856 539.825 216.624 538.385 217.232C536.977 217.84 535.745 218.144 534.689 218.144C533.633 218.144 532.817 217.904 532.241 217.424C531.697 216.912 531.233 216.24 530.849 215.408ZM554.915 194.768C557.059 194.736 558.659 195.136 559.715 195.968C560.771 196.768 561.299 197.936 561.299 199.472C561.299 200.976 560.835 202.272 559.907 203.36C559.011 204.416 557.907 205.168 556.595 205.616C557.523 206.576 558.355 207.552 559.091 208.544C559.859 209.536 560.243 210.576 560.243 211.664C560.243 213.808 559.395 215.472 557.699 216.656C556.003 217.808 553.635 218.384 550.595 218.384C547.587 218.384 545.331 217.792 543.827 216.608C542.323 215.392 541.571 214.032 541.571 212.528C541.571 210.992 541.939 209.6 542.675 208.352C543.443 207.104 544.259 206.48 545.123 206.48C545.635 206.48 546.003 206.672 546.227 207.056C546.451 207.408 546.867 208.464 547.475 210.224C547.699 210.864 548.067 211.472 548.579 212.048C549.763 213.36 551.635 214.016 554.195 214.016C553.811 212.8 553.187 211.76 552.323 210.896C551.491 210 550.659 209.136 549.827 208.304C548.995 207.472 548.259 206.592 547.619 205.664C546.979 204.704 546.659 203.584 546.659 202.304C546.659 200 547.523 198.128 549.251 196.688C550.883 195.408 552.771 194.768 554.915 194.768ZM554.723 203.648C556.003 202.272 556.643 201.168 556.643 200.336C556.643 199.952 556.499 199.616 556.211 199.328C555.955 199.008 555.571 198.848 555.059 198.848C554.547 198.848 554.051 198.912 553.571 199.04C553.123 199.168 552.755 199.264 552.467 199.328C552.467 200.544 553.219 201.984 554.723 203.648Z" fill="#DB0909"/>
<path d="M39.2944 384.24C39.2944 386.16 40.1424 387.12 41.8384 387.12C43.6944 387.12 45.3424 386 46.7824 383.76C47.1664 382.064 47.8864 379.12 48.9424 374.928C50.0304 370.736 50.6704 368.16 50.8624 367.2C51.2784 365.312 51.7424 363.808 52.2544 362.688C52.7984 361.568 53.4704 361.008 54.2704 361.008C55.7424 361.008 56.8624 361.344 57.6304 362.016C58.4304 362.656 58.8304 363.84 58.8304 365.568C58.8304 367.264 58.2544 369.184 57.1024 371.328C56.9104 372.48 56.7024 373.68 56.4784 374.928C56.2544 376.176 55.9664 377.808 55.6144 379.824C55.2624 381.84 54.6064 385.264 53.6464 390.096C57.4224 388.56 59.7264 387.296 60.5584 386.304C61.4224 385.312 62.0944 384.816 62.5744 384.816C63.0544 384.816 63.2944 385.312 63.2944 386.304C63.2944 387.296 62.9904 388.16 62.3824 388.896C61.8064 389.632 60.8784 390.464 59.5984 391.392C58.3504 392.32 56.0464 393.504 52.6864 394.944C51.0224 402.048 47.9824 406.528 43.5664 408.384C42.3504 408.896 41.0704 409.152 39.7264 409.152C36.8464 409.152 34.5584 408.608 32.8624 407.52C30.9104 406.304 29.9344 404.496 29.9344 402.096C29.9344 399.952 33.1344 397.68 39.5344 395.28C42.7344 394.096 44.6704 393.408 45.3424 393.216C45.3424 392.448 45.4224 391.456 45.5824 390.24C43.5984 391.36 41.4224 391.92 39.0544 391.92C36.7184 391.92 34.9584 391.216 33.7744 389.808C32.5904 388.368 31.9984 386.4 31.9984 383.904C31.9984 382.72 32.1904 381.456 32.5744 380.112C32.9904 378.768 33.4384 377.408 33.9184 376.032C34.4304 374.624 34.8784 373.248 35.2624 371.904C35.6784 370.56 35.8864 369.312 35.8864 368.16C35.8864 366.016 35.2304 364.944 33.9184 364.944C33.4704 364.944 33.0544 365.072 32.6704 365.328C32.3184 365.584 31.9504 365.856 31.5664 366.144C31.2144 366.432 30.8464 366.704 30.4624 366.96C30.0784 367.216 29.6304 367.344 29.1184 367.344C28.6384 367.344 28.3984 366.912 28.3984 366.048C28.3984 364.288 29.2144 362.848 30.8464 361.728C32.4144 360.576 34.2864 360 36.4624 360C38.6384 360 40.2704 360.8 41.3584 362.4C42.1904 363.584 42.6064 364.928 42.6064 366.432C42.6064 367.936 42.4304 369.392 42.0784 370.8C41.7264 372.176 41.3424 373.6 40.9264 375.072C40.5424 376.544 40.1744 378.048 39.8224 379.584C39.4704 381.088 39.2944 382.64 39.2944 384.24ZM41.0224 404.832C42.3024 403.776 43.3904 401.536 44.2864 398.112C42.5904 398.72 41.1504 399.216 39.9664 399.6C38.7824 399.984 37.8064 400.336 37.0384 400.656C36.2704 400.976 35.7104 401.28 35.3584 401.568C35.0064 401.888 34.8304 402.256 34.8304 402.672C34.8304 403.472 35.3104 404.128 36.2704 404.64C37.2304 405.152 38.1424 405.408 39.0064 405.408C39.8704 405.44 40.5424 405.248 41.0224 404.832ZM80.3086 391.92C77.7806 394.896 74.7406 396.384 71.1886 396.384C67.6686 396.384 65.0286 395.488 63.2686 393.696C61.5086 391.872 60.6446 389.616 60.6766 386.928C60.6446 383.12 61.8446 379.84 64.2766 377.088C66.7086 374.336 69.8926 372.96 73.8286 372.96C75.6206 372.96 77.0606 373.184 78.1486 373.632C80.0366 374.4 80.9806 375.12 80.9806 375.792C80.9806 376.304 79.6526 376.576 76.9966 376.608C74.3726 376.608 72.1646 377.52 70.3726 379.344C68.6126 381.136 67.7326 383.408 67.7326 386.16C67.7326 387.6 68.1486 388.816 68.9806 389.808C69.8446 390.768 71.0446 391.248 72.5806 391.248C74.1486 391.248 75.4446 390.928 76.4686 390.288C74.1966 388.752 73.0606 386.528 73.0606 383.616C73.0286 382.08 73.5726 380.688 74.6926 379.44C75.8446 378.16 77.3006 377.52 79.0606 377.52C80.8526 377.488 82.1326 377.968 82.9006 378.96C83.6686 379.952 84.0526 381.232 84.0526 382.8C84.0526 384.336 83.6846 385.968 82.9486 387.696H83.2366C84.6446 387.664 85.8606 387.168 86.8846 386.208C87.2686 385.824 87.5886 385.488 87.8446 385.2C88.1326 384.912 88.4206 384.768 88.7086 384.768C89.1566 384.768 89.3806 385.296 89.3806 386.352C89.3806 388.304 88.8046 389.776 87.6526 390.768C86.5006 391.728 85.2206 392.208 83.8126 392.208C82.4366 392.208 81.2686 392.112 80.3086 391.92ZM79.8766 386.352C80.4206 385.2 80.6926 384.08 80.6926 382.992C80.6926 381.904 80.3406 381.36 79.6366 381.36C79.3486 381.36 79.1086 381.568 78.9166 381.984C78.7246 382.4 78.6286 382.8 78.6286 383.184C78.6286 384.464 79.0446 385.52 79.8766 386.352ZM101.907 375.744C101.907 373.6 103.571 372.528 106.899 372.528C107.731 372.528 108.243 372.8 108.435 373.344C108.659 373.888 108.771 374.72 108.771 375.84C108.771 377.408 108.419 379.84 107.715 383.136C107.011 386.432 106.675 388.656 106.707 389.808C106.707 390.352 106.883 390.624 107.235 390.624C107.715 390.624 108.307 390.32 109.011 389.712C109.715 389.104 110.419 388.448 111.123 387.744C111.827 387.008 112.467 386.336 113.043 385.728C113.651 385.12 114.067 384.816 114.291 384.816C114.739 384.816 114.963 385.36 114.963 386.448C114.963 388.688 113.859 390.848 111.651 392.928C107.939 395.104 105.587 396.192 104.595 396.192C104.499 396.192 104.419 396.176 104.355 396.144C103.139 396.144 102.275 395.744 101.763 394.944C101.283 394.144 100.979 393.136 100.851 391.92C100.211 393.104 99.3311 394.128 98.2111 394.992C97.0911 395.824 95.8111 396.24 94.3711 396.24C91.8431 396.24 89.8911 395.76 88.5151 394.8C87.1711 393.84 86.4991 392.416 86.4991 390.528C86.4991 389.696 86.6111 388.928 86.8351 388.224C87.0911 387.52 87.4911 386.656 88.0351 385.632L89.4271 373.824C90.4191 373.056 91.8431 372.672 93.6991 372.672C95.1711 372.672 96.0031 373.632 96.1951 375.552C96.3551 377.12 96.2751 378.528 95.9551 379.776C95.6671 380.992 95.2671 382.544 94.7551 384.432C94.2431 386.288 93.9871 387.936 93.9871 389.376C93.9871 390.528 94.7071 391.104 96.1471 391.104C97.7151 391.104 99.0751 389.728 100.227 386.976C101.123 384.864 101.731 382.512 102.051 379.92C102.019 379.664 101.987 379.344 101.955 378.96C101.955 378.544 101.939 378.144 101.907 377.76C101.907 377.376 101.907 376.992 101.907 376.608V375.744ZM119.581 387.936L119.869 393.792C119.869 394.56 119.469 395.248 118.669 395.856C117.869 396.464 116.781 396.768 115.405 396.768C114.605 396.768 114.045 396.352 113.725 395.52C113.437 394.688 113.293 393.472 113.293 391.872C113.293 388.512 113.453 385.888 113.773 384C114.125 382.08 114.797 380.144 115.789 378.192C114.317 376.784 113.581 375.568 113.581 374.544C113.581 372.4 114.733 371.328 117.037 371.328C118.221 371.328 119.261 371.952 120.157 373.2C120.797 374.064 121.261 375.072 121.549 376.224C121.997 376.384 122.557 376.464 123.229 376.464C124.157 376.464 125.229 376.16 126.445 375.552L127.693 374.928C128.077 374.736 128.413 374.64 128.701 374.64C129.629 374.64 130.557 376 131.485 378.72C131.197 379.968 130.877 381.168 130.525 382.32C130.205 383.472 129.821 384.864 129.373 386.496C128.925 388.128 128.685 389.232 128.653 389.808C128.653 390.352 128.829 390.624 129.181 390.624C129.661 390.624 130.253 390.32 130.957 389.712C131.661 389.104 132.365 388.448 133.069 387.744C133.773 387.008 134.413 386.336 134.989 385.728C135.597 385.12 136.013 384.816 136.237 384.816C136.685 384.816 136.909 385.36 136.909 386.448C136.909 388.656 135.933 390.832 133.981 392.976C132.061 395.12 129.853 396.176 127.357 396.144C125.885 396.144 124.781 395.552 124.045 394.368C123.309 393.184 122.925 391.744 122.893 390.048C122.893 386.688 123.645 383.504 125.149 380.496C124.445 380.784 123.645 380.928 122.749 380.928C121.885 380.928 121.261 380.896 120.877 380.832C120.589 382.048 120.301 383.28 120.013 384.528C119.725 385.744 119.581 386.88 119.581 387.936ZM183.201 384.672C183.777 384.672 184.065 385.408 184.065 386.88C184.065 387.68 183.729 388.656 183.057 389.808C182.385 390.928 181.505 391.968 180.417 392.928C179.361 393.856 178.177 394.624 176.865 395.232C175.553 395.84 174.273 396.144 173.025 396.144C171.265 396.144 170.113 394.704 169.569 391.824C167.649 394.864 164.801 396.384 161.025 396.384C158.721 396.384 156.881 395.68 155.505 394.272C154.129 392.864 153.457 391.152 153.489 389.136C153.489 383.696 155.297 379.408 158.913 376.272C161.409 374.128 164.001 373.056 166.689 373.056C167.905 373.056 168.865 373.152 169.569 373.344L170.673 373.632C171.985 367.456 173.505 363.328 175.233 361.248C175.809 360.544 176.385 360.192 176.961 360.192C177.889 360.192 178.753 360.832 179.553 362.112C180.257 363.168 180.609 364.08 180.609 364.848C180.609 365.616 180.497 366.368 180.273 367.104C180.049 367.84 179.761 368.528 179.409 369.168C179.089 369.776 178.721 370.384 178.305 370.992C177.889 371.568 177.473 372.16 177.057 372.768C176.129 376.224 175.441 380.096 174.993 384.384C174.865 385.6 174.801 386.576 174.801 387.312C174.801 389.52 175.169 390.624 175.905 390.624C176.737 390.624 178.753 388.96 181.953 385.632C182.529 384.992 182.945 384.672 183.201 384.672ZM160.545 387.552C160.545 390.016 161.457 391.248 163.281 391.248C164.369 391.248 165.457 390.832 166.545 390C167.665 389.168 168.529 387.776 169.137 385.824C169.201 382.944 169.537 379.776 170.145 376.32C167.585 376.832 165.345 378.08 163.425 380.064C161.505 382.048 160.545 384.544 160.545 387.552ZM192.851 390.768C195.347 390.768 197.763 389.776 200.099 387.792C200.963 387.056 201.667 386.384 202.211 385.776C202.755 385.136 203.171 384.816 203.459 384.816C203.907 384.816 204.131 385.264 204.131 386.16C204.131 387.056 203.891 388.064 203.411 389.184C202.931 390.272 202.131 391.344 201.011 392.4C198.259 394.992 194.483 396.288 189.683 396.288C185.875 396.288 183.283 394.912 181.907 392.16C181.427 391.2 181.187 389.824 181.187 388.032C181.187 386.24 181.539 384.384 182.243 382.464C182.947 380.512 183.875 378.832 185.027 377.424C186.211 376.016 187.571 374.928 189.107 374.16C190.643 373.36 192.275 372.96 194.003 372.96C195.763 372.96 197.107 373.392 198.035 374.256C198.995 375.12 199.475 376.24 199.475 377.616C199.475 378.992 199.123 380.128 198.419 381.024C197.747 381.888 196.867 382.624 195.779 383.232C194.691 383.808 193.475 384.336 192.131 384.816C190.819 385.264 189.523 385.776 188.243 386.352V387.552C188.275 388.704 188.755 389.52 189.683 390C190.611 390.48 191.667 390.736 192.851 390.768ZM192.035 377.232C190.371 377.232 189.219 379.168 188.579 383.04C189.251 382.592 189.875 382.192 190.451 381.84C191.059 381.488 191.587 381.152 192.035 380.832C192.995 380.128 193.491 379.328 193.523 378.432C193.523 377.632 193.027 377.232 192.035 377.232ZM212.433 396.144C207.857 396.176 204.737 394.464 203.073 391.008C202.497 389.792 202.209 388.272 202.209 386.448C202.209 384.592 202.369 382.624 202.689 380.544C203.329 376.384 204.561 372.544 206.385 369.024C207.313 367.232 208.353 365.696 209.505 364.416C212.033 361.6 214.849 360.208 217.953 360.24C219.329 360.24 220.401 360.624 221.169 361.392C221.969 362.128 222.369 363.2 222.369 364.608C222.369 366.016 221.953 367.44 221.121 368.88C220.289 370.288 219.217 371.76 217.905 373.296C216.625 374.8 215.201 376.384 213.633 378.048C212.065 379.712 210.529 381.52 209.025 383.472V385.392C209.025 387.184 209.409 388.496 210.177 389.328C210.945 390.16 211.841 390.576 212.865 390.576C215.617 390.576 218.049 389.216 220.161 386.496C221.025 385.376 221.681 384.816 222.129 384.816C222.577 384.816 222.801 385.36 222.801 386.448C222.801 387.536 222.497 388.656 221.889 389.808C221.313 390.928 220.545 391.968 219.585 392.928C218.625 393.856 217.521 394.624 216.273 395.232C215.025 395.84 213.745 396.144 212.433 396.144ZM215.025 370.368C215.697 369.536 216.225 368.784 216.609 368.112C216.993 367.44 217.185 366.752 217.185 366.048C217.185 365.312 216.929 364.944 216.417 364.944C215.297 364.944 214.049 366.096 212.673 368.4C211.329 370.704 210.321 373.728 209.649 377.472C210.737 375.808 211.729 374.416 212.625 373.296C213.553 372.176 214.353 371.2 215.025 370.368ZM225.723 396.144C222.523 396.144 220.923 393.152 220.923 387.168C220.923 383.904 221.323 380.944 222.123 378.288C223.371 374.192 224.779 372.144 226.347 372.144C227.275 372.144 228.011 372.768 228.555 374.016C229.003 374.976 229.211 375.92 229.179 376.848C229.179 378.128 228.795 380.384 228.027 383.616C227.291 386.432 226.923 388.176 226.923 388.848C226.923 389.52 227.083 389.984 227.403 390.24C227.755 390.496 228.155 390.624 228.603 390.624C229.083 390.624 229.675 390.32 230.379 389.712C231.083 389.104 231.787 388.448 232.491 387.744C233.195 387.008 233.835 386.336 234.411 385.728C235.019 385.12 235.435 384.816 235.659 384.816C236.107 384.816 236.331 385.36 236.331 386.448C236.331 388.688 235.195 390.88 232.923 393.024C230.683 395.136 228.283 396.176 225.723 396.144ZM227.691 368.256C226.827 366.976 226.395 365.6 226.395 364.128C226.395 362.656 226.619 361.44 227.067 360.48C227.547 359.488 227.995 358.768 228.411 358.32C228.827 357.84 229.307 357.6 229.851 357.6C230.747 357.6 231.563 358.272 232.299 359.616C233.035 360.928 233.403 362.032 233.403 362.928C233.403 364.592 232.811 365.904 231.627 366.864C230.475 367.792 229.163 368.256 227.691 368.256ZM241.516 374.88C241.516 377.024 241.132 379.456 240.364 382.176C240.428 383.2 240.46 384.192 240.46 385.152C240.46 386.112 240.524 386.944 240.652 387.648C241.132 388.928 241.74 389.712 242.476 390C243.116 390 243.82 389.456 244.588 388.368C245.356 387.248 246.14 385.92 246.94 384.384C246.556 382.912 246.364 381.52 246.364 380.208C246.364 377.904 246.716 376.224 247.42 375.168C248.284 373.824 249.596 373.152 251.356 373.152C253.116 373.152 254.284 373.824 254.86 375.168C255.084 375.68 255.196 376.256 255.196 376.896C255.196 378.048 254.908 379.232 254.332 380.448C253.756 381.632 252.828 383.2 251.548 385.152C252.124 386.848 252.988 387.696 254.14 387.696C255.548 387.664 256.764 387.168 257.788 386.208C258.172 385.824 258.492 385.488 258.748 385.2C259.036 384.912 259.324 384.768 259.612 384.768C260.06 384.768 260.284 385.296 260.284 386.352C260.284 388.336 259.708 389.792 258.556 390.72C257.436 391.616 256.012 392.064 254.284 392.064C252.012 392.064 250.204 391.072 248.86 389.088C245.116 393.952 241.98 396.384 239.452 396.384C238.46 396.384 237.484 394.976 236.524 392.16C235.564 389.344 234.828 385.536 234.316 380.736C233.932 377.696 234.156 375.52 234.988 374.208C235.692 373.184 237.068 372.672 239.116 372.672C239.884 372.672 240.476 372.912 240.892 373.392C241.308 373.84 241.516 374.336 241.516 374.88ZM269.304 390.768C271.8 390.768 274.216 389.776 276.552 387.792C277.416 387.056 278.12 386.384 278.664 385.776C279.208 385.136 279.624 384.816 279.912 384.816C280.36 384.816 280.584 385.264 280.584 386.16C280.584 387.056 280.344 388.064 279.864 389.184C279.384 390.272 278.584 391.344 277.464 392.4C274.712 394.992 270.936 396.288 266.136 396.288C262.328 396.288 259.736 394.912 258.36 392.16C257.88 391.2 257.64 389.824 257.64 388.032C257.64 386.24 257.992 384.384 258.696 382.464C259.4 380.512 260.328 378.832 261.48 377.424C262.664 376.016 264.024 374.928 265.56 374.16C267.096 373.36 268.728 372.96 270.456 372.96C272.216 372.96 273.56 373.392 274.488 374.256C275.448 375.12 275.928 376.24 275.928 377.616C275.928 378.992 275.576 380.128 274.872 381.024C274.2 381.888 273.32 382.624 272.232 383.232C271.144 383.808 269.928 384.336 268.584 384.816C267.272 385.264 265.976 385.776 264.696 386.352V387.552C264.728 388.704 265.208 389.52 266.136 390C267.064 390.48 268.12 390.736 269.304 390.768ZM268.488 377.232C266.824 377.232 265.672 379.168 265.032 383.04C265.704 382.592 266.328 382.192 266.904 381.84C267.512 381.488 268.04 381.152 268.488 380.832C269.448 380.128 269.944 379.328 269.976 378.432C269.976 377.632 269.48 377.232 268.488 377.232ZM285.19 387.936L285.478 393.792C285.478 394.56 285.078 395.248 284.278 395.856C283.478 396.464 282.39 396.768 281.014 396.768C280.214 396.768 279.654 396.352 279.334 395.52C279.046 394.688 278.902 393.472 278.902 391.872C278.902 388.512 279.062 385.888 279.382 384C279.734 382.08 280.406 380.144 281.398 378.192C279.926 376.784 279.19 375.568 279.19 374.544C279.19 372.4 280.342 371.328 282.646 371.328C283.83 371.328 284.87 371.952 285.766 373.2C286.406 374.064 286.87 375.072 287.158 376.224C287.606 376.384 288.166 376.464 288.838 376.464C289.766 376.464 290.838 376.16 292.054 375.552L293.302 374.928C293.686 374.736 294.022 374.64 294.31 374.64C295.238 374.64 296.166 376 297.094 378.72C296.806 379.968 296.486 381.168 296.134 382.32C295.814 383.472 295.43 384.864 294.982 386.496C294.534 388.128 294.294 389.232 294.262 389.808C294.262 390.352 294.438 390.624 294.79 390.624C295.27 390.624 295.862 390.32 296.566 389.712C297.27 389.104 297.974 388.448 298.678 387.744C299.382 387.008 300.022 386.336 300.598 385.728C301.206 385.12 301.622 384.816 301.846 384.816C302.294 384.816 302.518 385.36 302.518 386.448C302.518 388.656 301.542 390.832 299.59 392.976C297.67 395.12 295.462 396.176 292.966 396.144C291.494 396.144 290.39 395.552 289.654 394.368C288.918 393.184 288.534 391.744 288.502 390.048C288.502 386.688 289.254 383.504 290.758 380.496C290.054 380.784 289.254 380.928 288.358 380.928C287.494 380.928 286.87 380.896 286.486 380.832C286.198 382.048 285.91 383.28 285.622 384.528C285.334 385.744 285.19 386.88 285.19 387.936ZM313.032 392.496C311.432 394.704 309.288 395.808 306.6 395.808C304.424 395.808 302.68 395.36 301.368 394.464C300.088 393.536 299.448 392.08 299.448 390.096C299.448 389.264 299.56 388.496 299.784 387.792C300.04 387.088 300.44 386.224 300.984 385.2L302.376 373.824C303.368 373.056 304.712 372.672 306.408 372.672C307.848 372.672 308.664 373.632 308.856 375.552C308.92 376.128 308.952 376.816 308.952 377.616C308.952 378.384 308.824 379.2 308.568 380.064C307.288 384.48 306.664 387.44 306.696 388.944C306.696 390.096 307.368 390.672 308.712 390.672C310.056 390.672 311.048 390.24 311.688 389.376C312.328 388.512 312.872 387.44 313.32 386.16C314.152 382.608 314.92 379.68 315.624 377.376C316.36 375.072 316.824 373.696 317.016 373.248C317.336 372.48 317.944 372.08 318.84 372.048C319.736 372.08 320.584 372.72 321.384 373.968C322.184 375.184 322.584 376.128 322.584 376.8C322.52 379.04 321.128 384.688 318.408 393.744C320.488 392.112 322.552 390.112 324.6 387.744C325.304 386.912 325.896 386.224 326.376 385.68C326.856 385.104 327.24 384.816 327.528 384.816C327.976 384.816 328.2 385.328 328.2 386.352C328.2 388.368 327.064 390.72 324.792 393.408C322.552 396.096 319.8 398.192 316.536 399.696C316.152 400.976 315.736 402.192 315.288 403.344C314.84 404.496 314.264 405.504 313.56 406.368C312.024 408.224 309.688 409.152 306.552 409.152C304.44 409.152 302.632 408.544 301.128 407.328C299.656 406.112 298.92 404.592 298.92 402.768C298.92 401.744 299.256 400.928 299.928 400.32C300.632 399.712 301.576 399.2 302.76 398.784C303.976 398.4 305.384 398.048 306.984 397.728C308.584 397.44 310.296 397.072 312.12 396.624C312.568 394.704 312.872 393.328 313.032 392.496ZM306.504 405.456C308.008 405.456 309.368 404.144 310.584 401.52C309.432 401.744 308.408 401.904 307.512 402C306.616 402.128 305.848 402.24 305.208 402.336C303.928 402.528 303.304 402.864 303.336 403.344C303.336 403.952 303.688 404.464 304.392 404.88C305.128 405.296 305.832 405.488 306.504 405.456ZM350.786 396.144C347.586 396.144 345.986 393.152 345.986 387.168C345.986 383.904 346.386 380.944 347.186 378.288C348.434 374.192 349.842 372.144 351.41 372.144C352.338 372.144 353.074 372.768 353.618 374.016C354.066 374.976 354.274 375.92 354.242 376.848C354.242 378.128 353.858 380.384 353.09 383.616C352.354 386.432 351.986 388.176 351.986 388.848C351.986 389.52 352.146 389.984 352.466 390.24C352.818 390.496 353.218 390.624 353.666 390.624C354.146 390.624 354.738 390.32 355.442 389.712C356.146 389.104 356.85 388.448 357.554 387.744C358.258 387.008 358.898 386.336 359.474 385.728C360.082 385.12 360.498 384.816 360.722 384.816C361.17 384.816 361.394 385.36 361.394 386.448C361.394 388.688 360.258 390.88 357.986 393.024C355.746 395.136 353.346 396.176 350.786 396.144ZM352.754 368.256C351.89 366.976 351.458 365.6 351.458 364.128C351.458 362.656 351.682 361.44 352.13 360.48C352.61 359.488 353.058 358.768 353.474 358.32C353.89 357.84 354.37 357.6 354.914 357.6C355.81 357.6 356.626 358.272 357.362 359.616C358.098 360.928 358.466 362.032 358.466 362.928C358.466 364.592 357.874 365.904 356.69 366.864C355.538 367.792 354.226 368.256 352.754 368.256ZM369.939 372.768C372.083 372.736 373.683 373.136 374.739 373.968C375.795 374.768 376.323 375.936 376.323 377.472C376.323 378.976 375.859 380.272 374.931 381.36C374.035 382.416 372.931 383.168 371.619 383.616C372.547 384.576 373.379 385.552 374.115 386.544C374.883 387.536 375.267 388.576 375.267 389.664C375.267 391.808 374.419 393.472 372.723 394.656C371.027 395.808 368.659 396.384 365.619 396.384C362.611 396.384 360.355 395.792 358.851 394.608C357.347 393.392 356.595 392.032 356.595 390.528C356.595 388.992 356.963 387.6 357.699 386.352C358.467 385.104 359.283 384.48 360.147 384.48C360.659 384.48 361.027 384.672 361.251 385.056C361.475 385.408 361.891 386.464 362.499 388.224C362.723 388.864 363.091 389.472 363.603 390.048C364.787 391.36 366.659 392.016 369.219 392.016C368.835 390.8 368.211 389.76 367.347 388.896C366.515 388 365.683 387.136 364.851 386.304C364.019 385.472 363.283 384.592 362.643 383.664C362.003 382.704 361.683 381.584 361.683 380.304C361.683 378 362.547 376.128 364.275 374.688C365.907 373.408 367.795 372.768 369.939 372.768ZM369.747 381.648C371.027 380.272 371.667 379.168 371.667 378.336C371.667 377.952 371.523 377.616 371.235 377.328C370.979 377.008 370.595 376.848 370.083 376.848C369.571 376.848 369.075 376.912 368.595 377.04C368.147 377.168 367.779 377.264 367.491 377.328C367.491 378.544 368.243 379.984 369.747 381.648ZM408.423 372.768C410.567 372.736 412.167 373.136 413.223 373.968C414.279 374.768 414.807 375.936 414.807 377.472C414.807 378.976 414.343 380.272 413.415 381.36C412.519 382.416 411.415 383.168 410.103 383.616C411.031 384.576 411.863 385.552 412.599 386.544C413.367 387.536 413.751 388.576 413.751 389.664C413.751 391.808 412.903 393.472 411.207 394.656C409.511 395.808 407.143 396.384 404.103 396.384C401.095 396.384 398.839 395.792 397.335 394.608C395.831 393.392 395.079 392.032 395.079 390.528C395.079 388.992 395.447 387.6 396.183 386.352C396.951 385.104 397.767 384.48 398.631 384.48C399.143 384.48 399.511 384.672 399.735 385.056C399.959 385.408 400.375 386.464 400.983 388.224C401.207 388.864 401.575 389.472 402.087 390.048C403.271 391.36 405.143 392.016 407.703 392.016C407.319 390.8 406.695 389.76 405.831 388.896C404.999 388 404.167 387.136 403.335 386.304C402.503 385.472 401.767 384.592 401.127 383.664C400.487 382.704 400.167 381.584 400.167 380.304C400.167 378 401.031 376.128 402.759 374.688C404.391 373.408 406.279 372.768 408.423 372.768ZM408.231 381.648C409.511 380.272 410.151 379.168 410.151 378.336C410.151 377.952 410.007 377.616 409.719 377.328C409.463 377.008 409.079 376.848 408.567 376.848C408.055 376.848 407.559 376.912 407.079 377.04C406.631 377.168 406.263 377.264 405.975 377.328C405.975 378.544 406.727 379.984 408.231 381.648ZM427.929 390.768C430.425 390.768 432.841 389.776 435.177 387.792C436.041 387.056 436.745 386.384 437.289 385.776C437.833 385.136 438.249 384.816 438.537 384.816C438.985 384.816 439.209 385.264 439.209 386.16C439.209 387.056 438.969 388.064 438.489 389.184C438.009 390.272 437.209 391.344 436.089 392.4C433.337 394.992 429.561 396.288 424.761 396.288C420.953 396.288 418.361 394.912 416.985 392.16C416.505 391.2 416.265 389.824 416.265 388.032C416.265 386.24 416.617 384.384 417.321 382.464C418.025 380.512 418.953 378.832 420.105 377.424C421.289 376.016 422.649 374.928 424.185 374.16C425.721 373.36 427.353 372.96 429.081 372.96C430.841 372.96 432.185 373.392 433.113 374.256C434.073 375.12 434.553 376.24 434.553 377.616C434.553 378.992 434.201 380.128 433.497 381.024C432.825 381.888 431.945 382.624 430.857 383.232C429.769 383.808 428.553 384.336 427.209 384.816C425.897 385.264 424.601 385.776 423.321 386.352V387.552C423.353 388.704 423.833 389.52 424.761 390C425.689 390.48 426.745 390.736 427.929 390.768ZM427.113 377.232C425.449 377.232 424.297 379.168 423.657 383.04C424.329 382.592 424.953 382.192 425.529 381.84C426.137 381.488 426.665 381.152 427.113 380.832C428.073 380.128 428.569 379.328 428.601 378.432C428.601 377.632 428.105 377.232 427.113 377.232ZM438.919 393.408C438.567 392.544 438.311 391.552 438.151 390.432C437.991 389.28 437.911 387.68 437.911 385.632C437.911 383.584 438.295 380.816 439.063 377.328H436.903C436.519 377.328 436.327 377.168 436.327 376.848C436.327 376.08 436.391 375.456 436.519 374.976C436.679 374.464 437.031 373.888 437.575 373.248H438.727C439.175 373.248 439.655 373.232 440.167 373.2C441.703 368.272 443.271 365.808 444.871 365.808C446.151 365.84 447.047 366.656 447.559 368.256C447.687 368.704 447.831 369.184 447.991 369.696L446.023 373.152C448.263 373.216 449.671 373.248 450.247 373.248C450.855 373.248 451.175 373.312 451.207 373.44C451.271 373.536 451.303 373.696 451.303 373.92C451.303 374.496 451.159 375.216 450.871 376.08C450.615 376.944 450.311 377.36 449.959 377.328L445.159 377.088C444.487 380.992 444.151 384.224 444.151 386.784C444.151 389.344 444.519 390.624 445.255 390.624C445.863 390.624 446.967 390.128 448.567 389.136C450.167 388.112 451.319 387.136 452.023 386.208C452.727 385.28 453.303 384.816 453.751 384.816C454.199 384.816 454.423 385.36 454.423 386.448C454.423 387.536 454.039 388.656 453.271 389.808C452.503 390.928 451.527 391.968 450.343 392.928C449.191 393.856 447.895 394.624 446.455 395.232C445.047 395.84 443.815 396.144 442.759 396.144C441.703 396.144 440.887 395.904 440.311 395.424C439.767 394.912 439.303 394.24 438.919 393.408Z" fill="#5E4949"/>
<path d="M146.804 141C146.436 141 145.996 140.872 145.484 140.616C144.988 140.344 144.548 140.024 144.164 139.656C143.796 139.288 143.612 138.984 143.612 138.744C143.596 138.488 143.668 137.952 143.828 137.136C144.004 136.304 144.116 135.768 144.164 135.528C144.228 135.208 144.348 134.624 144.524 133.776C144.7 132.912 144.844 132.112 144.956 131.376L145.148 130.248C145.452 128.456 145.732 127 145.988 125.88C146.26 124.76 146.532 124.2 146.804 124.2C147.076 124.2 147.444 124.312 147.908 124.536C148.388 124.76 148.836 125.048 149.252 125.4C149.668 125.736 149.948 126.056 150.092 126.36C150.348 126.936 150.684 128.168 151.1 130.056C151.388 131.368 151.604 132.272 151.748 132.768C152.436 131.728 153.316 130.136 154.388 127.992C155.076 126.632 155.596 125.664 155.948 125.088C156.316 124.496 156.644 124.2 156.932 124.2C157.236 124.2 157.644 124.336 158.156 124.608C158.684 124.88 159.14 125.2 159.524 125.568C159.924 125.936 160.124 126.256 160.124 126.528C160.124 126.752 160.028 127.384 159.836 128.424C159.644 129.448 159.524 130.088 159.476 130.344L158.852 133.728C158.692 134.672 158.524 135.912 158.348 137.448C158.188 138.76 158.044 139.68 157.916 140.208C157.804 140.736 157.62 141 157.364 141C156.996 141 156.556 140.872 156.044 140.616C155.548 140.344 155.108 140.024 154.724 139.656C154.356 139.288 154.172 138.984 154.172 138.744C154.156 138.536 154.212 138.096 154.34 137.424C154.484 136.736 154.644 135.96 154.82 135.096C154.964 134.408 155.044 134.016 155.06 133.92L155.924 131.256L155.588 131.136L155.348 131.616C154.724 132.896 154.22 133.896 153.836 134.616C153.468 135.32 153.164 135.824 152.924 136.128C152.764 136.32 152.476 136.48 152.06 136.608C151.644 136.72 151.236 136.776 150.836 136.776C150.42 136.776 150.14 136.704 149.996 136.56C149.852 136.432 149.724 136.168 149.612 135.768C149.516 135.352 149.38 134.712 149.204 133.848C149.172 133.672 149.084 133.248 148.94 132.576C148.796 131.888 148.636 131.264 148.46 130.704L148.292 133.728C148.132 134.672 147.964 135.912 147.788 137.448C147.628 138.76 147.484 139.68 147.356 140.208C147.244 140.736 147.06 141 146.804 141ZM165.787 141C165.019 141 164.219 140.752 163.387 140.256C162.555 139.744 161.867 139.12 161.323 138.384C160.779 137.648 160.507 136.952 160.507 136.296C160.507 135.128 160.779 133.848 161.323 132.456C161.883 131.064 162.651 129.888 163.627 128.928C164.603 127.952 165.707 127.464 166.939 127.464C167.819 127.464 168.611 127.656 169.315 128.04C170.035 128.424 170.595 128.904 170.995 129.48C171.395 130.056 171.595 130.616 171.595 131.16C171.595 131.832 171.291 132.496 170.683 133.152C170.075 133.792 169.227 134.36 168.139 134.856C167.051 135.336 165.811 135.68 164.419 135.888C164.403 136.08 164.395 136.368 164.395 136.752C164.395 137.232 164.411 137.592 164.443 137.832C165.243 137.752 166.035 137.536 166.819 137.184C167.603 136.832 168.459 136.336 169.387 135.696C170.011 135.888 170.483 136.192 170.803 136.608C171.123 137.024 171.283 137.52 171.283 138.096C171.283 138.576 170.987 139.048 170.395 139.512C169.819 139.96 169.099 140.32 168.235 140.592C167.371 140.864 166.555 141 165.787 141ZM164.779 134.088C165.755 133.736 166.571 133.288 167.227 132.744C167.883 132.2 168.211 131.736 168.211 131.352C168.211 130.904 167.899 130.6 167.275 130.44C166.667 130.888 166.147 131.424 165.715 132.048C165.299 132.672 164.987 133.352 164.779 134.088ZM185.648 135.936C186.352 136.176 186.872 136.512 187.208 136.944C187.56 137.36 187.736 137.84 187.736 138.384C187.736 138.768 187.464 139.168 186.92 139.584C186.376 139.984 185.728 140.32 184.976 140.592C184.224 140.864 183.584 141 183.056 141C182.688 141 182.264 140.856 181.784 140.568C181.304 140.28 180.888 139.952 180.536 139.584C180.2 139.2 180.032 138.904 180.032 138.696C180.032 138.536 180.208 137.912 180.56 136.824C181.184 134.92 181.496 133.72 181.496 133.224C181.496 133.032 181.448 132.936 181.352 132.936C180.712 132.936 179.52 134.056 177.776 136.296C177.712 136.552 177.64 136.872 177.56 137.256C177.496 137.64 177.448 137.912 177.416 138.072C177.24 139.016 177.072 139.744 176.912 140.256C176.768 140.752 176.576 141 176.336 141C175.92 141 175.448 140.864 174.92 140.592C174.408 140.304 173.96 139.976 173.576 139.608C173.208 139.224 173.024 138.904 173.024 138.648C173.024 138.36 173.128 137.936 173.336 137.376C173.544 136.816 173.856 136.048 174.272 135.072C174.592 134.32 174.832 133.736 174.992 133.32C175.152 132.888 175.232 132.584 175.232 132.408C175.232 132.28 175.152 132.144 174.992 132C174.848 131.84 174.624 131.648 174.32 131.424C173.968 131.152 173.704 130.936 173.528 130.776C173.368 130.616 173.288 130.448 173.288 130.272C173.288 129.936 173.44 129.544 173.744 129.096C174.064 128.648 174.432 128.264 174.848 127.944C175.28 127.624 175.648 127.464 175.952 127.464C176.288 127.464 176.672 127.616 177.104 127.92C177.552 128.224 177.936 128.576 178.256 128.976C178.592 129.36 178.76 129.656 178.76 129.864C178.76 130.248 178.712 130.72 178.616 131.28C178.536 131.84 178.424 132.392 178.28 132.936C179.448 131.4 180.416 130.216 181.184 129.384C181.952 128.536 182.552 128.112 182.984 128.112C183.288 128.112 183.656 128.264 184.088 128.568C184.52 128.872 184.888 129.224 185.192 129.624C185.512 130.008 185.672 130.304 185.672 130.512C185.656 130.784 185.544 131.248 185.336 131.904C185.128 132.56 184.832 133.432 184.448 134.52C183.936 135.928 183.608 136.88 183.464 137.376C183.96 137.12 184.344 136.904 184.616 136.728C184.904 136.536 185.248 136.272 185.648 135.936ZM192.324 141C191.908 141 191.452 140.848 190.956 140.544C190.476 140.224 190.068 139.864 189.732 139.464C189.396 139.048 189.228 138.712 189.228 138.456C189.228 138.2 189.3 137.832 189.444 137.352C189.604 136.872 189.764 136.392 189.924 135.912C190.1 135.432 190.212 135.128 190.26 135C190.468 134.44 190.652 133.912 190.812 133.416C190.988 132.92 191.076 132.584 191.076 132.408C191.076 132.28 190.996 132.144 190.836 132C190.692 131.84 190.468 131.648 190.164 131.424C189.812 131.152 189.548 130.936 189.372 130.776C189.212 130.616 189.132 130.448 189.132 130.272C189.132 129.936 189.284 129.544 189.588 129.096C189.908 128.648 190.276 128.264 190.692 127.944C191.124 127.624 191.492 127.464 191.796 127.464C192.132 127.464 192.516 127.616 192.948 127.92C193.396 128.224 193.78 128.576 194.1 128.976C194.436 129.36 194.604 129.656 194.604 129.864C194.604 130.856 194.436 132.048 194.1 133.44C193.764 134.832 193.332 136.216 192.804 137.592C193.86 136.712 194.804 135.736 195.636 134.664C196.468 133.592 197.052 132.632 197.388 131.784C197.42 130.744 197.54 129.872 197.748 129.168C197.972 128.464 198.228 128.112 198.516 128.112C198.932 128.112 199.388 128.264 199.884 128.568C200.396 128.856 200.828 129.2 201.18 129.6C201.532 129.984 201.708 130.288 201.708 130.512C201.692 130.848 201.54 131.48 201.252 132.408C200.964 133.32 200.564 134.496 200.052 135.936C199.748 136.832 199.572 137.344 199.524 137.472C199.988 137.264 200.404 137.048 200.772 136.824C201.156 136.584 201.556 136.288 201.972 135.936C202.676 136.176 203.196 136.512 203.532 136.944C203.884 137.36 204.06 137.84 204.06 138.384C204.06 138.768 203.788 139.168 203.244 139.584C202.7 139.984 202.052 140.32 201.3 140.592C200.548 140.864 199.908 141 199.38 141C199.044 141 198.644 140.864 198.18 140.592C197.716 140.304 197.3 139.984 196.932 139.632C196.58 139.264 196.404 138.992 196.404 138.816C196.404 138.64 196.46 138.424 196.572 138.168C196.7 137.912 196.836 137.64 196.98 137.352C197.14 137.048 197.26 136.832 197.34 136.704L196.74 136.368C195.86 137.984 195.1 139.16 194.46 139.896C193.836 140.632 193.124 141 192.324 141Z" fill="#5E4949"/>
<path d="M158.056 281.024C158.072 281.28 158.128 281.928 158.224 282.968C158.336 283.992 158.392 284.848 158.392 285.536C158.392 286.432 158.288 286.912 158.08 286.976C158.016 286.992 157.912 287 157.768 287C157.416 287 156.976 286.92 156.448 286.76C155.936 286.584 155.472 286.368 155.056 286.112C154.656 285.856 154.424 285.608 154.36 285.368C154.296 285.128 154.264 284.12 154.264 282.344C152.536 282.552 151.4 282.68 150.856 282.728C150.424 283.992 149.928 285.376 149.368 286.88C148.936 286.976 148.536 287.024 148.168 287.024C147.528 287.024 146.984 286.872 146.536 286.568C146.104 286.248 145.816 285.768 145.672 285.128L146.152 284.048C147.912 280.128 149.432 276.84 150.712 274.184C152.008 271.528 152.848 270.2 153.232 270.2C153.536 270.2 153.976 270.312 154.552 270.536C155.144 270.76 155.672 271.032 156.136 271.352C156.616 271.672 156.888 271.96 156.952 272.216C157.064 272.664 157.216 273.6 157.408 275.024C157.6 276.448 157.752 277.824 157.864 279.152L158.056 281.024ZM154.192 273.944C153.488 275.608 152.792 277.392 152.104 279.296C152.84 279.248 153.568 279.176 154.288 279.08C154.288 276.872 154.256 275.16 154.192 273.944ZM163.448 287C162.984 287 162.464 286.864 161.888 286.592C161.328 286.304 160.848 285.976 160.448 285.608C160.048 285.224 159.848 284.896 159.848 284.624C159.848 284.352 159.96 283.68 160.184 282.608C160.408 281.536 160.552 280.848 160.616 280.544C161.096 278.336 161.416 276.808 161.576 275.96L161.816 274.616C162.152 272.76 162.456 271.264 162.728 270.128C163.016 268.992 163.304 268.424 163.592 268.424C163.928 268.424 164.368 268.568 164.912 268.856C165.472 269.144 165.96 269.48 166.376 269.864C166.792 270.248 167 270.584 167 270.872C167 271.256 166.928 271.632 166.784 272C166.656 272.352 166.456 272.816 166.184 273.392C165.928 273.888 165.752 274.272 165.656 274.544C165.352 275.488 165.024 276.8 164.672 278.48C164.336 280.16 164.056 281.784 163.832 283.352C164.344 283.096 164.744 282.88 165.032 282.704C165.32 282.512 165.656 282.256 166.04 281.936C166.744 282.176 167.264 282.512 167.6 282.944C167.952 283.36 168.128 283.84 168.128 284.384C168.128 284.768 167.856 285.168 167.312 285.584C166.768 285.984 166.12 286.32 165.368 286.592C164.616 286.864 163.976 287 163.448 287ZM172.683 287C172.219 287 171.699 286.864 171.123 286.592C170.563 286.304 170.083 285.976 169.683 285.608C169.283 285.224 169.083 284.896 169.083 284.624C169.083 284.352 169.195 283.68 169.419 282.608C169.643 281.536 169.787 280.848 169.851 280.544C170.331 278.336 170.651 276.808 170.811 275.96L171.051 274.616C171.387 272.76 171.691 271.264 171.963 270.128C172.251 268.992 172.539 268.424 172.827 268.424C173.163 268.424 173.603 268.568 174.147 268.856C174.707 269.144 175.195 269.48 175.611 269.864C176.027 270.248 176.235 270.584 176.235 270.872C176.235 271.256 176.163 271.632 176.019 272C175.891 272.352 175.691 272.816 175.419 273.392C175.163 273.888 174.987 274.272 174.891 274.544C174.587 275.488 174.259 276.8 173.907 278.48C173.571 280.16 173.291 281.784 173.067 283.352C173.579 283.096 173.979 282.88 174.267 282.704C174.555 282.512 174.891 282.256 175.275 281.936C175.979 282.176 176.499 282.512 176.835 282.944C177.187 283.36 177.363 283.84 177.363 284.384C177.363 284.768 177.091 285.168 176.547 285.584C176.003 285.984 175.355 286.32 174.603 286.592C173.851 286.864 173.211 287 172.683 287ZM192.2 276.32C191.48 276.864 190.896 277.4 190.448 277.928C190.016 278.456 189.8 278.904 189.8 279.272C189.8 279.448 189.952 279.632 190.256 279.824C190.56 280 191.064 280.248 191.768 280.568C192.888 281.08 193.768 281.56 194.408 282.008C195.048 282.44 195.368 282.944 195.368 283.52C195.368 284.096 195.04 284.656 194.384 285.2C193.744 285.728 192.944 286.16 191.984 286.496C191.024 286.832 190.128 287 189.296 287C188.672 287 188.016 286.872 187.328 286.616C186.64 286.344 186.064 286.008 185.6 285.608C185.136 285.192 184.904 284.8 184.904 284.432C184.904 283.776 185.112 283.256 185.528 282.872C185.96 282.472 186.52 282.272 187.208 282.272C187.528 282.272 187.856 282.32 188.192 282.416C188.464 283.28 188.696 283.896 188.888 284.264C189.864 284.008 190.736 283.576 191.504 282.968C190.16 282.392 188.928 281.744 187.808 281.024C186.704 280.304 186.152 279.632 186.152 279.008C186.152 278.368 186.448 277.608 187.04 276.728C187.632 275.832 188.384 275.064 189.296 274.424C190.224 273.768 191.168 273.44 192.128 273.44C192.784 273.44 193.408 273.632 194 274.016C194.608 274.4 195.096 274.88 195.464 275.456C195.832 276.032 196.016 276.592 196.016 277.136C196.016 277.664 195.808 278.096 195.392 278.432C194.992 278.752 194.48 278.912 193.856 278.912C193.456 278.912 193.048 278.832 192.632 278.672C192.6 278.032 192.456 277.248 192.2 276.32ZM202.162 287C201.394 287 200.594 286.752 199.762 286.256C198.93 285.744 198.242 285.12 197.698 284.384C197.154 283.648 196.882 282.952 196.882 282.296C196.882 281.128 197.154 279.848 197.698 278.456C198.258 277.064 199.026 275.888 200.002 274.928C200.978 273.952 202.082 273.464 203.314 273.464C204.194 273.464 204.986 273.656 205.69 274.04C206.41 274.424 206.97 274.904 207.37 275.48C207.77 276.056 207.97 276.616 207.97 277.16C207.97 277.832 207.666 278.496 207.058 279.152C206.45 279.792 205.602 280.36 204.514 280.856C203.426 281.336 202.186 281.68 200.794 281.888C200.778 282.08 200.77 282.368 200.77 282.752C200.77 283.232 200.786 283.592 200.818 283.832C201.618 283.752 202.41 283.536 203.194 283.184C203.978 282.832 204.834 282.336 205.762 281.696C206.386 281.888 206.858 282.192 207.178 282.608C207.498 283.024 207.658 283.52 207.658 284.096C207.658 284.576 207.362 285.048 206.77 285.512C206.194 285.96 205.474 286.32 204.61 286.592C203.746 286.864 202.93 287 202.162 287ZM201.154 280.088C202.13 279.736 202.946 279.288 203.602 278.744C204.258 278.2 204.586 277.736 204.586 277.352C204.586 276.904 204.274 276.6 203.65 276.44C203.042 276.888 202.522 277.424 202.09 278.048C201.674 278.672 201.362 279.352 201.154 280.088ZM214.913 277.568C214.385 279.984 214.041 281.952 213.881 283.472C214.905 282.976 215.729 282.464 216.353 281.936C217.057 282.176 217.577 282.512 217.913 282.944C218.265 283.36 218.441 283.84 218.441 284.384C218.441 284.768 218.169 285.168 217.625 285.584C217.081 285.984 216.433 286.32 215.681 286.592C214.929 286.864 214.289 287 213.761 287C213.297 287 212.777 286.864 212.201 286.592C211.641 286.304 211.161 285.976 210.761 285.608C210.361 285.224 210.161 284.896 210.161 284.624C210.161 284.4 210.241 283.92 210.401 283.184C210.577 282.432 210.729 281.792 210.857 281.264C211.001 280.72 211.105 280.32 211.169 280.064L211.745 277.76L210.281 277.856C210.009 277.728 209.801 277.528 209.657 277.256C209.513 276.984 209.441 276.672 209.441 276.32C209.441 275.68 209.673 275.136 210.137 274.688C210.713 274.72 211.417 274.752 212.249 274.784C212.249 273.76 212.361 272.632 212.585 271.4C212.809 270.152 213.057 269.528 213.329 269.528C213.665 269.528 214.089 269.672 214.601 269.96C215.113 270.248 215.561 270.584 215.945 270.968C216.329 271.352 216.521 271.688 216.521 271.976C216.521 272.344 216.449 272.72 216.305 273.104C216.177 273.472 215.961 273.984 215.657 274.64C215.929 274.608 216.617 274.496 217.721 274.304L218.273 274.208C218.561 274.368 218.777 274.6 218.921 274.904C219.081 275.208 219.161 275.536 219.161 275.888C219.161 276.176 219.105 276.456 218.993 276.728C218.881 277 218.713 277.232 218.489 277.424L214.913 277.568Z" fill="#5E4949"/>
<path d="M5.49936 27.5C3.0737 92.6709 44.3424 109.323 132.999 132" stroke="black" stroke-width="3"/>
<path d="M212.998 203C144.444 224.011 130.016 240.832 135.998 277.5" stroke="black" stroke-width="3"/>
<path d="M138 280C43.7693 308.83 27.612 333.827 22 384" stroke="black" stroke-width="3"/>
<path d="M133.5 134C143.7 184.207 161.665 198.717 214 202" stroke="black" stroke-width="3"/>
<circle cx="136" cy="278" r="6" fill="#DB0909"/>
<circle cx="214" cy="203" r="6" fill="#DB0909"/>
<circle cx="24" cy="381" r="6" fill="#DB0909"/>
<circle cx="132" cy="132" r="6" fill="#DB0909"/>
<circle cx="6" cy="28" r="6" fill="#DB0909"/>
</svg>
